<?xml version="1.0" encoding="UTF-8" standalone="no"?>
<!DOCTYPE svg PUBLIC "-//W3C//DTD SVG 1.1//EN"
 "http://www.w3.org/Graphics/SVG/1.1/DTD/svg11.dtd">
<!-- Generated by graphviz version 2.43.0 (0)
 -->
<!-- Title: DLRM Pages: 1 -->
<svg width="1335pt" height="1251pt"
 viewBox="0.00 0.00 1335.00 1251.00" xmlns="http://www.w3.org/2000/svg" xmlns:xlink="http://www.w3.org/1999/xlink">
<g id="graph0" class="graph" transform="scale(1 1) rotate(0) translate(4 1247)">
<title>DLRM</title>
<polygon fill="white" stroke="transparent" points="-4,4 -4,-1247 1331,-1247 1331,4 -4,4"/>
<g id="clust1" class="cluster">
<title>cluster_MLP_Bottom</title>
<polygon fill="none" stroke="black" points="17,-80 17,-480 167,-480 167,-80 17,-80"/>
</g>
<g id="clust2" class="cluster">
<title>cluster_Embedding</title>
<polygon fill="none" stroke="black" points="175,-395 175,-480 1319,-480 1319,-395 175,-395"/>
</g>
<g id="clust3" class="cluster">
<title>cluster_Interaction</title>
<polygon fill="none" stroke="black" points="409,-500 409,-920 599,-920 599,-500 409,-500"/>
</g>
<g id="clust4" class="cluster">
<title>cluster_MLP_Top</title>
<polygon fill="none" stroke="black" points="430,-940 430,-1235 568,-1235 568,-940 430,-940"/>
</g>
<!-- dense_input -->
<g id="node1" class="node">
<title>dense_input</title>
<polygon fill="#b2dfee" stroke="#b2dfee" points="0,-0.5 0,-51.5 184,-51.5 184,-0.5 0,-0.5"/>
<text text-anchor="middle" x="20" y="-41.1" font-family="Times,serif" font-size="8.00">name</text>
<polyline fill="none" stroke="#b2dfee" points="0,-34.5 40,-34.5 "/>
<text text-anchor="middle" x="20" y="-24.1" font-family="Times,serif" font-size="8.00">type</text>
<polyline fill="none" stroke="#b2dfee" points="0,-17.5 40,-17.5 "/>
<text text-anchor="middle" x="20" y="-7.1" font-family="Times,serif" font-size="8.00">shape</text>
<polyline fill="none" stroke="#b2dfee" points="40,-0.5 40,-51.5 "/>
<text text-anchor="middle" x="112" y="-41.1" font-family="Times,serif" font-size="8.00">dense_input</text>
<polyline fill="none" stroke="#b2dfee" points="40,-34.5 184,-34.5 "/>
<text text-anchor="middle" x="112" y="-24.1" font-family="Times,serif" font-size="8.00">Data</text>
<polyline fill="none" stroke="#b2dfee" points="40,-17.5 184,-17.5 "/>
<text text-anchor="middle" x="112" y="-7.1" font-family="Times,serif" font-size="8.00">[batch, dense_feature_num=13]</text>
</g>
<!-- MLP_Bottom_1 -->
<g id="node3" class="node">
<title>MLP_Bottom_1</title>
<polygon fill="#b2dfee" stroke="#b2dfee" points="25.5,-88.5 25.5,-156.5 158.5,-156.5 158.5,-88.5 25.5,-88.5"/>
<text text-anchor="middle" x="53.5" y="-146.1" font-family="Times,serif" font-size="8.00">name</text>
<polyline fill="none" stroke="#b2dfee" points="25.5,-139.5 81.5,-139.5 "/>
<text text-anchor="middle" x="53.5" y="-129.1" font-family="Times,serif" font-size="8.00">type</text>
<polyline fill="none" stroke="#b2dfee" points="25.5,-122.5 81.5,-122.5 "/>
<text text-anchor="middle" x="53.5" y="-112.1" font-family="Times,serif" font-size="8.00">activation</text>
<polyline fill="none" stroke="#b2dfee" points="25.5,-105.5 81.5,-105.5 "/>
<text text-anchor="middle" x="53.5" y="-95.1" font-family="Times,serif" font-size="8.00">out_shape</text>
<polyline fill="none" stroke="#b2dfee" points="81.5,-88.5 81.5,-156.5 "/>
<text text-anchor="middle" x="120" y="-146.1" font-family="Times,serif" font-size="8.00">MLP_Bottom_1</text>
<polyline fill="none" stroke="#b2dfee" points="81.5,-139.5 158.5,-139.5 "/>
<text text-anchor="middle" x="120" y="-129.1" font-family="Times,serif" font-size="8.00">Dense</text>
<polyline fill="none" stroke="#b2dfee" points="81.5,-122.5 158.5,-122.5 "/>
<text text-anchor="middle" x="120" y="-112.1" font-family="Times,serif" font-size="8.00">Relu</text>
<polyline fill="none" stroke="#b2dfee" points="81.5,-105.5 158.5,-105.5 "/>
<text text-anchor="middle" x="120" y="-95.1" font-family="Times,serif" font-size="8.00">[batch, 512]</text>
</g>
<!-- dense_input&#45;&gt;MLP_Bottom_1 -->
<g id="edge1" class="edge">
<title>dense_input&#45;&gt;MLP_Bottom_1</title>
<path fill="none" stroke="black" d="M92,-51.83C92,-59.93 92,-69.19 92,-78.24"/>
<polygon fill="black" stroke="black" points="88.5,-78.31 92,-88.31 95.5,-78.31 88.5,-78.31"/>
</g>
<!-- spare_input -->
<g id="node2" class="node">
<title>spare_input</title>
<polygon fill="#b2dfee" stroke="#b2dfee" points="655.5,-307 655.5,-358 838.5,-358 838.5,-307 655.5,-307"/>
<text text-anchor="middle" x="675.5" y="-347.6" font-family="Times,serif" font-size="8.00">name</text>
<polyline fill="none" stroke="#b2dfee" points="655.5,-341 695.5,-341 "/>
<text text-anchor="middle" x="675.5" y="-330.6" font-family="Times,serif" font-size="8.00">type</text>
<polyline fill="none" stroke="#b2dfee" points="655.5,-324 695.5,-324 "/>
<text text-anchor="middle" x="675.5" y="-313.6" font-family="Times,serif" font-size="8.00">shape</text>
<polyline fill="none" stroke="#b2dfee" points="695.5,-307 695.5,-358 "/>
<text text-anchor="middle" x="767" y="-347.6" font-family="Times,serif" font-size="8.00">spare_input</text>
<polyline fill="none" stroke="#b2dfee" points="695.5,-341 838.5,-341 "/>
<text text-anchor="middle" x="767" y="-330.6" font-family="Times,serif" font-size="8.00">Data</text>
<polyline fill="none" stroke="#b2dfee" points="695.5,-324 838.5,-324 "/>
<text text-anchor="middle" x="767" y="-313.6" font-family="Times,serif" font-size="8.00">[spare_feature_num=26, batch]</text>
</g>
<!-- Embedding_c1 -->
<g id="node7" class="node">
<title>Embedding_c1</title>
<polygon fill="#b2dfee" stroke="#b2dfee" points="1099.5,-403.5 1099.5,-471.5 1310.5,-471.5 1310.5,-403.5 1099.5,-403.5"/>
<text text-anchor="middle" x="1139.5" y="-461.1" font-family="Times,serif" font-size="8.00">name</text>
<polyline fill="none" stroke="#b2dfee" points="1099.5,-454.5 1179.5,-454.5 "/>
<text text-anchor="middle" x="1139.5" y="-444.1" font-family="Times,serif" font-size="8.00">type</text>
<polyline fill="none" stroke="#b2dfee" points="1099.5,-437.5 1179.5,-437.5 "/>
<text text-anchor="middle" x="1139.5" y="-427.1" font-family="Times,serif" font-size="8.00">embedding_size</text>
<polyline fill="none" stroke="#b2dfee" points="1099.5,-420.5 1179.5,-420.5 "/>
<text text-anchor="middle" x="1139.5" y="-410.1" font-family="Times,serif" font-size="8.00">out_shape</text>
<polyline fill="none" stroke="#b2dfee" points="1179.5,-403.5 1179.5,-471.5 "/>
<text text-anchor="middle" x="1245" y="-461.1" font-family="Times,serif" font-size="8.00">Embedding_c1</text>
<polyline fill="none" stroke="#b2dfee" points="1179.5,-454.5 1310.5,-454.5 "/>
<text text-anchor="middle" x="1245" y="-444.1" font-family="Times,serif" font-size="8.00">Embedding</text>
<polyline fill="none" stroke="#b2dfee" points="1179.5,-437.5 1310.5,-437.5 "/>
<text text-anchor="middle" x="1245" y="-427.1" font-family="Times,serif" font-size="8.00">c1</text>
<polyline fill="none" stroke="#b2dfee" points="1179.5,-420.5 1310.5,-420.5 "/>
<text text-anchor="middle" x="1245" y="-410.1" font-family="Times,serif" font-size="8.00">[batch, embedding_dim=16]</text>
</g>
<!-- spare_input&#45;&gt;Embedding_c1 -->
<g id="edge5" class="edge">
<title>spare_input&#45;&gt;Embedding_c1</title>
<path fill="none" stroke="black" d="M838.84,-345.52C908.68,-355.72 1006.79,-372.33 1091,-395 1097.01,-396.62 1103.14,-398.41 1109.3,-400.33"/>
<polygon fill="black" stroke="black" points="1108.39,-403.71 1118.98,-403.42 1110.52,-397.04 1108.39,-403.71"/>
</g>
<!-- Embedding_c2 -->
<g id="node8" class="node">
<title>Embedding_c2</title>
<polygon fill="#b2dfee" stroke="#b2dfee" points="870.5,-403.5 870.5,-471.5 1081.5,-471.5 1081.5,-403.5 870.5,-403.5"/>
<text text-anchor="middle" x="910.5" y="-461.1" font-family="Times,serif" font-size="8.00">name</text>
<polyline fill="none" stroke="#b2dfee" points="870.5,-454.5 950.5,-454.5 "/>
<text text-anchor="middle" x="910.5" y="-444.1" font-family="Times,serif" font-size="8.00">type</text>
<polyline fill="none" stroke="#b2dfee" points="870.5,-437.5 950.5,-437.5 "/>
<text text-anchor="middle" x="910.5" y="-427.1" font-family="Times,serif" font-size="8.00">embedding_size</text>
<polyline fill="none" stroke="#b2dfee" points="870.5,-420.5 950.5,-420.5 "/>
<text text-anchor="middle" x="910.5" y="-410.1" font-family="Times,serif" font-size="8.00">out_shape</text>
<polyline fill="none" stroke="#b2dfee" points="950.5,-403.5 950.5,-471.5 "/>
<text text-anchor="middle" x="1016" y="-461.1" font-family="Times,serif" font-size="8.00">Embedding_c2</text>
<polyline fill="none" stroke="#b2dfee" points="950.5,-454.5 1081.5,-454.5 "/>
<text text-anchor="middle" x="1016" y="-444.1" font-family="Times,serif" font-size="8.00">Embedding</text>
<polyline fill="none" stroke="#b2dfee" points="950.5,-437.5 1081.5,-437.5 "/>
<text text-anchor="middle" x="1016" y="-427.1" font-family="Times,serif" font-size="8.00">c2</text>
<polyline fill="none" stroke="#b2dfee" points="950.5,-420.5 1081.5,-420.5 "/>
<text text-anchor="middle" x="1016" y="-410.1" font-family="Times,serif" font-size="8.00">[batch, embedding_dim=16]</text>
</g>
<!-- spare_input&#45;&gt;Embedding_c2 -->
<g id="edge6" class="edge">
<title>spare_input&#45;&gt;Embedding_c2</title>
<path fill="none" stroke="black" d="M801.56,-358.04C828.9,-370.33 862.58,-385.48 893.03,-399.18"/>
<polygon fill="black" stroke="black" points="891.81,-402.47 902.37,-403.38 894.68,-396.09 891.81,-402.47"/>
</g>
<!-- Embedding_c3 -->
<g id="node9" class="node">
<title>Embedding_c3</title>
<polygon fill="#b2dfee" stroke="#b2dfee" points="641.5,-403.5 641.5,-471.5 852.5,-471.5 852.5,-403.5 641.5,-403.5"/>
<text text-anchor="middle" x="681.5" y="-461.1" font-family="Times,serif" font-size="8.00">name</text>
<polyline fill="none" stroke="#b2dfee" points="641.5,-454.5 721.5,-454.5 "/>
<text text-anchor="middle" x="681.5" y="-444.1" font-family="Times,serif" font-size="8.00">type</text>
<polyline fill="none" stroke="#b2dfee" points="641.5,-437.5 721.5,-437.5 "/>
<text text-anchor="middle" x="681.5" y="-427.1" font-family="Times,serif" font-size="8.00">embedding_size</text>
<polyline fill="none" stroke="#b2dfee" points="641.5,-420.5 721.5,-420.5 "/>
<text text-anchor="middle" x="681.5" y="-410.1" font-family="Times,serif" font-size="8.00">out_shape</text>
<polyline fill="none" stroke="#b2dfee" points="721.5,-403.5 721.5,-471.5 "/>
<text text-anchor="middle" x="787" y="-461.1" font-family="Times,serif" font-size="8.00">Embedding_c3</text>
<polyline fill="none" stroke="#b2dfee" points="721.5,-454.5 852.5,-454.5 "/>
<text text-anchor="middle" x="787" y="-444.1" font-family="Times,serif" font-size="8.00">Embedding</text>
<polyline fill="none" stroke="#b2dfee" points="721.5,-437.5 852.5,-437.5 "/>
<text text-anchor="middle" x="787" y="-427.1" font-family="Times,serif" font-size="8.00">c3</text>
<polyline fill="none" stroke="#b2dfee" points="721.5,-420.5 852.5,-420.5 "/>
<text text-anchor="middle" x="787" y="-410.1" font-family="Times,serif" font-size="8.00">[batch, embedding_dim=16]</text>
</g>
<!-- spare_input&#45;&gt;Embedding_c3 -->
<g id="edge7" class="edge">
<title>spare_input&#45;&gt;Embedding_c3</title>
<path fill="none" stroke="black" d="M747,-358.17C747,-368.67 747,-381.22 747,-393.18"/>
<polygon fill="black" stroke="black" points="743.5,-393.46 747,-403.46 750.5,-393.46 743.5,-393.46"/>
</g>
<!-- Embedding_cx -->
<g id="node10" class="node">
<title>Embedding_cx</title>
<polygon fill="#b2dfee" stroke="#b2dfee" points="412.5,-403.5 412.5,-471.5 623.5,-471.5 623.5,-403.5 412.5,-403.5"/>
<text text-anchor="middle" x="452.5" y="-461.1" font-family="Times,serif" font-size="8.00">name</text>
<polyline fill="none" stroke="#b2dfee" points="412.5,-454.5 492.5,-454.5 "/>
<text text-anchor="middle" x="452.5" y="-444.1" font-family="Times,serif" font-size="8.00">type</text>
<polyline fill="none" stroke="#b2dfee" points="412.5,-437.5 492.5,-437.5 "/>
<text text-anchor="middle" x="452.5" y="-427.1" font-family="Times,serif" font-size="8.00">embedding_size</text>
<polyline fill="none" stroke="#b2dfee" points="412.5,-420.5 492.5,-420.5 "/>
<text text-anchor="middle" x="452.5" y="-410.1" font-family="Times,serif" font-size="8.00">out_shape</text>
<polyline fill="none" stroke="#b2dfee" points="492.5,-403.5 492.5,-471.5 "/>
<text text-anchor="middle" x="558" y="-461.1" font-family="Times,serif" font-size="8.00">Embedding_cx</text>
<polyline fill="none" stroke="#b2dfee" points="492.5,-454.5 623.5,-454.5 "/>
<text text-anchor="middle" x="558" y="-444.1" font-family="Times,serif" font-size="8.00">Embedding</text>
<polyline fill="none" stroke="#b2dfee" points="492.5,-437.5 623.5,-437.5 "/>
<text text-anchor="middle" x="558" y="-427.1" font-family="Times,serif" font-size="8.00">cx</text>
<polyline fill="none" stroke="#b2dfee" points="492.5,-420.5 623.5,-420.5 "/>
<text text-anchor="middle" x="558" y="-410.1" font-family="Times,serif" font-size="8.00">[batch, embedding_dim=16]</text>
</g>
<!-- spare_input&#45;&gt;Embedding_cx -->
<g id="edge8" class="edge">
<title>spare_input&#45;&gt;Embedding_cx</title>
<path fill="none" stroke="black" d="M692.44,-358.04C665.1,-370.33 631.42,-385.48 600.97,-399.18"/>
<polygon fill="black" stroke="black" points="599.32,-396.09 591.63,-403.38 602.19,-402.47 599.32,-396.09"/>
</g>
<!-- Embedding_c26 -->
<g id="node11" class="node">
<title>Embedding_c26</title>
<polygon fill="#b2dfee" stroke="#b2dfee" points="183.5,-403.5 183.5,-471.5 394.5,-471.5 394.5,-403.5 183.5,-403.5"/>
<text text-anchor="middle" x="223.5" y="-461.1" font-family="Times,serif" font-size="8.00">name</text>
<polyline fill="none" stroke="#b2dfee" points="183.5,-454.5 263.5,-454.5 "/>
<text text-anchor="middle" x="223.5" y="-444.1" font-family="Times,serif" font-size="8.00">type</text>
<polyline fill="none" stroke="#b2dfee" points="183.5,-437.5 263.5,-437.5 "/>
<text text-anchor="middle" x="223.5" y="-427.1" font-family="Times,serif" font-size="8.00">embedding_size</text>
<polyline fill="none" stroke="#b2dfee" points="183.5,-420.5 263.5,-420.5 "/>
<text text-anchor="middle" x="223.5" y="-410.1" font-family="Times,serif" font-size="8.00">out_shape</text>
<polyline fill="none" stroke="#b2dfee" points="263.5,-403.5 263.5,-471.5 "/>
<text text-anchor="middle" x="329" y="-461.1" font-family="Times,serif" font-size="8.00">Embedding_c26</text>
<polyline fill="none" stroke="#b2dfee" points="263.5,-454.5 394.5,-454.5 "/>
<text text-anchor="middle" x="329" y="-444.1" font-family="Times,serif" font-size="8.00">Embedding</text>
<polyline fill="none" stroke="#b2dfee" points="263.5,-437.5 394.5,-437.5 "/>
<text text-anchor="middle" x="329" y="-427.1" font-family="Times,serif" font-size="8.00">c26</text>
<polyline fill="none" stroke="#b2dfee" points="263.5,-420.5 394.5,-420.5 "/>
<text text-anchor="middle" x="329" y="-410.1" font-family="Times,serif" font-size="8.00">[batch, embedding_dim=16]</text>
</g>
<!-- spare_input&#45;&gt;Embedding_c26 -->
<g id="edge9" class="edge">
<title>spare_input&#45;&gt;Embedding_c26</title>
<path fill="none" stroke="black" d="M655.44,-345.62C585.82,-355.86 488,-372.49 404,-395 397.95,-396.62 391.76,-398.42 385.55,-400.34"/>
<polygon fill="black" stroke="black" points="384.26,-397.08 375.79,-403.44 386.38,-403.75 384.26,-397.08"/>
</g>
<!-- MLP_Bottom_2 -->
<g id="node4" class="node">
<title>MLP_Bottom_2</title>
<polygon fill="#b2dfee" stroke="#b2dfee" points="25.5,-193.5 25.5,-261.5 158.5,-261.5 158.5,-193.5 25.5,-193.5"/>
<text text-anchor="middle" x="53.5" y="-251.1" font-family="Times,serif" font-size="8.00">name</text>
<polyline fill="none" stroke="#b2dfee" points="25.5,-244.5 81.5,-244.5 "/>
<text text-anchor="middle" x="53.5" y="-234.1" font-family="Times,serif" font-size="8.00">type</text>
<polyline fill="none" stroke="#b2dfee" points="25.5,-227.5 81.5,-227.5 "/>
<text text-anchor="middle" x="53.5" y="-217.1" font-family="Times,serif" font-size="8.00">activation</text>
<polyline fill="none" stroke="#b2dfee" points="25.5,-210.5 81.5,-210.5 "/>
<text text-anchor="middle" x="53.5" y="-200.1" font-family="Times,serif" font-size="8.00">out_shape</text>
<polyline fill="none" stroke="#b2dfee" points="81.5,-193.5 81.5,-261.5 "/>
<text text-anchor="middle" x="120" y="-251.1" font-family="Times,serif" font-size="8.00">MLP_Bottom_2</text>
<polyline fill="none" stroke="#b2dfee" points="81.5,-244.5 158.5,-244.5 "/>
<text text-anchor="middle" x="120" y="-234.1" font-family="Times,serif" font-size="8.00">Dense</text>
<polyline fill="none" stroke="#b2dfee" points="81.5,-227.5 158.5,-227.5 "/>
<text text-anchor="middle" x="120" y="-217.1" font-family="Times,serif" font-size="8.00">Relu</text>
<polyline fill="none" stroke="#b2dfee" points="81.5,-210.5 158.5,-210.5 "/>
<text text-anchor="middle" x="120" y="-200.1" font-family="Times,serif" font-size="8.00">[batch, 256]</text>
</g>
<!-- MLP_Bottom_1&#45;&gt;MLP_Bottom_2 -->
<g id="edge2" class="edge">
<title>MLP_Bottom_1&#45;&gt;MLP_Bottom_2</title>
<path fill="none" stroke="black" d="M92,-156.66C92,-165.11 92,-174.32 92,-183.2"/>
<polygon fill="black" stroke="black" points="88.5,-183.41 92,-193.41 95.5,-183.41 88.5,-183.41"/>
</g>
<!-- MLP_Bottom_3 -->
<g id="node5" class="node">
<title>MLP_Bottom_3</title>
<polygon fill="#b2dfee" stroke="#b2dfee" points="25.5,-298.5 25.5,-366.5 158.5,-366.5 158.5,-298.5 25.5,-298.5"/>
<text text-anchor="middle" x="53.5" y="-356.1" font-family="Times,serif" font-size="8.00">name</text>
<polyline fill="none" stroke="#b2dfee" points="25.5,-349.5 81.5,-349.5 "/>
<text text-anchor="middle" x="53.5" y="-339.1" font-family="Times,serif" font-size="8.00">type</text>
<polyline fill="none" stroke="#b2dfee" points="25.5,-332.5 81.5,-332.5 "/>
<text text-anchor="middle" x="53.5" y="-322.1" font-family="Times,serif" font-size="8.00">activation</text>
<polyline fill="none" stroke="#b2dfee" points="25.5,-315.5 81.5,-315.5 "/>
<text text-anchor="middle" x="53.5" y="-305.1" font-family="Times,serif" font-size="8.00">out_shape</text>
<polyline fill="none" stroke="#b2dfee" points="81.5,-298.5 81.5,-366.5 "/>
<text text-anchor="middle" x="120" y="-356.1" font-family="Times,serif" font-size="8.00">MLP_Bottom_3</text>
<polyline fill="none" stroke="#b2dfee" points="81.5,-349.5 158.5,-349.5 "/>
<text text-anchor="middle" x="120" y="-339.1" font-family="Times,serif" font-size="8.00">Dense</text>
<polyline fill="none" stroke="#b2dfee" points="81.5,-332.5 158.5,-332.5 "/>
<text text-anchor="middle" x="120" y="-322.1" font-family="Times,serif" font-size="8.00">Relu</text>
<polyline fill="none" stroke="#b2dfee" points="81.5,-315.5 158.5,-315.5 "/>
<text text-anchor="middle" x="120" y="-305.1" font-family="Times,serif" font-size="8.00">[batch, 64]</text>
</g>
<!-- MLP_Bottom_2&#45;&gt;MLP_Bottom_3 -->
<g id="edge3" class="edge">
<title>MLP_Bottom_2&#45;&gt;MLP_Bottom_3</title>
<path fill="none" stroke="black" d="M92,-261.66C92,-270.11 92,-279.32 92,-288.2"/>
<polygon fill="black" stroke="black" points="88.5,-288.41 92,-298.41 95.5,-288.41 88.5,-288.41"/>
</g>
<!-- MLP_Bottom_4 -->
<g id="node6" class="node">
<title>MLP_Bottom_4</title>
<polygon fill="#b2dfee" stroke="#b2dfee" points="25.5,-403.5 25.5,-471.5 158.5,-471.5 158.5,-403.5 25.5,-403.5"/>
<text text-anchor="middle" x="53.5" y="-461.1" font-family="Times,serif" font-size="8.00">name</text>
<polyline fill="none" stroke="#b2dfee" points="25.5,-454.5 81.5,-454.5 "/>
<text text-anchor="middle" x="53.5" y="-444.1" font-family="Times,serif" font-size="8.00">type</text>
<polyline fill="none" stroke="#b2dfee" points="25.5,-437.5 81.5,-437.5 "/>
<text text-anchor="middle" x="53.5" y="-427.1" font-family="Times,serif" font-size="8.00">activation</text>
<polyline fill="none" stroke="#b2dfee" points="25.5,-420.5 81.5,-420.5 "/>
<text text-anchor="middle" x="53.5" y="-410.1" font-family="Times,serif" font-size="8.00">out_shape</text>
<polyline fill="none" stroke="#b2dfee" points="81.5,-403.5 81.5,-471.5 "/>
<text text-anchor="middle" x="120" y="-461.1" font-family="Times,serif" font-size="8.00">MLP_Bottom_4</text>
<polyline fill="none" stroke="#b2dfee" points="81.5,-454.5 158.5,-454.5 "/>
<text text-anchor="middle" x="120" y="-444.1" font-family="Times,serif" font-size="8.00">Dense</text>
<polyline fill="none" stroke="#b2dfee" points="81.5,-437.5 158.5,-437.5 "/>
<text text-anchor="middle" x="120" y="-427.1" font-family="Times,serif" font-size="8.00">Sigmoid</text>
<polyline fill="none" stroke="#b2dfee" points="81.5,-420.5 158.5,-420.5 "/>
<text text-anchor="middle" x="120" y="-410.1" font-family="Times,serif" font-size="8.00">[batch, 16]</text>
</g>
<!-- MLP_Bottom_3&#45;&gt;MLP_Bottom_4 -->
<g id="edge4" class="edge">
<title>MLP_Bottom_3&#45;&gt;MLP_Bottom_4</title>
<path fill="none" stroke="black" d="M92,-366.66C92,-375.11 92,-384.32 92,-393.2"/>
<polygon fill="black" stroke="black" points="88.5,-393.41 92,-403.41 95.5,-393.41 88.5,-393.41"/>
</g>
<!-- Interaction_concat -->
<g id="node12" class="node">
<title>Interaction_concat</title>
<polygon fill="#b2dfee" stroke="#b2dfee" points="445,-508.5 445,-559.5 591,-559.5 591,-508.5 445,-508.5"/>
<text text-anchor="middle" x="473" y="-549.1" font-family="Times,serif" font-size="8.00">name</text>
<polyline fill="none" stroke="#b2dfee" points="445,-542.5 501,-542.5 "/>
<text text-anchor="middle" x="473" y="-532.1" font-family="Times,serif" font-size="8.00">type</text>
<polyline fill="none" stroke="#b2dfee" points="445,-525.5 501,-525.5 "/>
<text text-anchor="middle" x="473" y="-515.1" font-family="Times,serif" font-size="8.00">out_shape</text>
<polyline fill="none" stroke="#b2dfee" points="501,-508.5 501,-559.5 "/>
<text text-anchor="middle" x="546" y="-549.1" font-family="Times,serif" font-size="8.00">Interaction_concat</text>
<polyline fill="none" stroke="#b2dfee" points="501,-542.5 591,-542.5 "/>
<text text-anchor="middle" x="546" y="-532.1" font-family="Times,serif" font-size="8.00">Concat</text>
<polyline fill="none" stroke="#b2dfee" points="501,-525.5 591,-525.5 "/>
<text text-anchor="middle" x="546" y="-515.1" font-family="Times,serif" font-size="8.00">[batch, 27, 16]</text>
</g>
<!-- MLP_Bottom_4&#45;&gt;Interaction_concat -->
<g id="edge10" class="edge">
<title>MLP_Bottom_4&#45;&gt;Interaction_concat</title>
<path fill="none" stroke="black" d="M149.72,-471.57C156.74,-474.77 163.94,-477.68 171,-480 218.54,-495.63 347.92,-513.02 434.55,-523.48"/>
<polygon fill="black" stroke="black" points="434.29,-526.97 444.63,-524.69 435.12,-520.02 434.29,-526.97"/>
</g>
<!-- Interaction_concat_top -->
<g id="node16" class="node">
<title>Interaction_concat_top</title>
<polygon fill="#b2dfee" stroke="#b2dfee" points="417.5,-860.5 417.5,-911.5 580.5,-911.5 580.5,-860.5 417.5,-860.5"/>
<text text-anchor="middle" x="445.5" y="-901.1" font-family="Times,serif" font-size="8.00">name</text>
<polyline fill="none" stroke="#b2dfee" points="417.5,-894.5 473.5,-894.5 "/>
<text text-anchor="middle" x="445.5" y="-884.1" font-family="Times,serif" font-size="8.00">type</text>
<polyline fill="none" stroke="#b2dfee" points="417.5,-877.5 473.5,-877.5 "/>
<text text-anchor="middle" x="445.5" y="-867.1" font-family="Times,serif" font-size="8.00">out_shape</text>
<polyline fill="none" stroke="#b2dfee" points="473.5,-860.5 473.5,-911.5 "/>
<text text-anchor="middle" x="527" y="-901.1" font-family="Times,serif" font-size="8.00">Interaction_concat_top</text>
<polyline fill="none" stroke="#b2dfee" points="473.5,-894.5 580.5,-894.5 "/>
<text text-anchor="middle" x="527" y="-884.1" font-family="Times,serif" font-size="8.00">Concat</text>
<polyline fill="none" stroke="#b2dfee" points="473.5,-877.5 580.5,-877.5 "/>
<text text-anchor="middle" x="527" y="-867.1" font-family="Times,serif" font-size="8.00">[batch, 367]</text>
</g>
<!-- MLP_Bottom_4&#45;&gt;Interaction_concat_top -->
<g id="edge20" class="edge">
<title>MLP_Bottom_4&#45;&gt;Interaction_concat_top</title>
<path fill="none" stroke="black" d="M142.93,-471.78C185.74,-504.2 240,-557.77 240,-621 240,-621 240,-621 240,-711 240,-794.08 332.95,-840.06 407.49,-863.58"/>
<polygon fill="black" stroke="black" points="406.82,-867.04 417.41,-866.62 408.87,-860.34 406.82,-867.04"/>
</g>
<!-- Embedding_c1&#45;&gt;Interaction_concat -->
<g id="edge11" class="edge">
<title>Embedding_c1&#45;&gt;Interaction_concat</title>
<path fill="none" stroke="black" d="M1121.68,-471.59C1111.46,-474.83 1101.07,-477.74 1091,-480 919.9,-518.38 714.06,-529.05 601.55,-531.96"/>
<polygon fill="black" stroke="black" points="601.21,-528.47 591.29,-532.21 601.38,-535.46 601.21,-528.47"/>
</g>
<!-- Embedding_c2&#45;&gt;Interaction_concat -->
<g id="edge12" class="edge">
<title>Embedding_c2&#45;&gt;Interaction_concat</title>
<path fill="none" stroke="black" d="M890.98,-471.5C881.29,-474.65 871.49,-477.57 862,-480 774.41,-502.46 671.68,-516.77 601.44,-524.79"/>
<polygon fill="black" stroke="black" points="600.86,-521.33 591.32,-525.92 601.65,-528.28 600.86,-521.33"/>
</g>
<!-- Embedding_c3&#45;&gt;Interaction_concat -->
<g id="edge13" class="edge">
<title>Embedding_c3&#45;&gt;Interaction_concat</title>
<path fill="none" stroke="black" d="M666.91,-471.55C640.83,-482.31 612.13,-494.16 586.94,-504.55"/>
<polygon fill="black" stroke="black" points="585.38,-501.41 577.48,-508.46 588.05,-507.88 585.38,-501.41"/>
</g>
<!-- Embedding_cx&#45;&gt;Interaction_concat -->
<g id="edge14" class="edge">
<title>Embedding_cx&#45;&gt;Interaction_concat</title>
<path fill="none" stroke="black" d="M518,-471.55C518,-480.18 518,-489.5 518,-498.22"/>
<polygon fill="black" stroke="black" points="514.5,-498.46 518,-508.46 521.5,-498.46 514.5,-498.46"/>
</g>
<!-- Embedding_c26&#45;&gt;Interaction_concat -->
<g id="edge15" class="edge">
<title>Embedding_c26&#45;&gt;Interaction_concat</title>
<path fill="none" stroke="black" d="M369.09,-471.55C395.17,-482.31 423.87,-494.16 449.06,-504.55"/>
<polygon fill="black" stroke="black" points="447.95,-507.88 458.52,-508.46 450.62,-501.41 447.95,-507.88"/>
</g>
<!-- Interaction_tranpose -->
<g id="node13" class="node">
<title>Interaction_tranpose</title>
<polygon fill="#b2dfee" stroke="#b2dfee" points="417,-596.5 417,-647.5 571,-647.5 571,-596.5 417,-596.5"/>
<text text-anchor="middle" x="445" y="-637.1" font-family="Times,serif" font-size="8.00">name</text>
<polyline fill="none" stroke="#b2dfee" points="417,-630.5 473,-630.5 "/>
<text text-anchor="middle" x="445" y="-620.1" font-family="Times,serif" font-size="8.00">type</text>
<polyline fill="none" stroke="#b2dfee" points="417,-613.5 473,-613.5 "/>
<text text-anchor="middle" x="445" y="-603.1" font-family="Times,serif" font-size="8.00">out_shape</text>
<polyline fill="none" stroke="#b2dfee" points="473,-596.5 473,-647.5 "/>
<text text-anchor="middle" x="522" y="-637.1" font-family="Times,serif" font-size="8.00">Interaction_tranpose</text>
<polyline fill="none" stroke="#b2dfee" points="473,-630.5 571,-630.5 "/>
<text text-anchor="middle" x="522" y="-620.1" font-family="Times,serif" font-size="8.00">Tranpose</text>
<polyline fill="none" stroke="#b2dfee" points="473,-613.5 571,-613.5 "/>
<text text-anchor="middle" x="522" y="-603.1" font-family="Times,serif" font-size="8.00">[batch, 16, 27]</text>
</g>
<!-- Interaction_concat&#45;&gt;Interaction_tranpose -->
<g id="edge16" class="edge">
<title>Interaction_concat&#45;&gt;Interaction_tranpose</title>
<path fill="none" stroke="black" d="M511.06,-559.87C508.72,-568.24 506.08,-577.72 503.58,-586.68"/>
<polygon fill="black" stroke="black" points="500.16,-585.91 500.84,-596.48 506.9,-587.79 500.16,-585.91"/>
</g>
<!-- Interaction_matmul -->
<g id="node14" class="node">
<title>Interaction_matmul</title>
<polygon fill="#b2dfee" stroke="#b2dfee" points="424,-684.5 424,-735.5 574,-735.5 574,-684.5 424,-684.5"/>
<text text-anchor="middle" x="452" y="-725.1" font-family="Times,serif" font-size="8.00">name</text>
<polyline fill="none" stroke="#b2dfee" points="424,-718.5 480,-718.5 "/>
<text text-anchor="middle" x="452" y="-708.1" font-family="Times,serif" font-size="8.00">type</text>
<polyline fill="none" stroke="#b2dfee" points="424,-701.5 480,-701.5 "/>
<text text-anchor="middle" x="452" y="-691.1" font-family="Times,serif" font-size="8.00">out_shape</text>
<polyline fill="none" stroke="#b2dfee" points="480,-684.5 480,-735.5 "/>
<text text-anchor="middle" x="527" y="-725.1" font-family="Times,serif" font-size="8.00">Interaction_matmul</text>
<polyline fill="none" stroke="#b2dfee" points="480,-718.5 574,-718.5 "/>
<text text-anchor="middle" x="527" y="-708.1" font-family="Times,serif" font-size="8.00">Matmul</text>
<polyline fill="none" stroke="#b2dfee" points="480,-701.5 574,-701.5 "/>
<text text-anchor="middle" x="527" y="-691.1" font-family="Times,serif" font-size="8.00">[batch, 27, 27]</text>
</g>
<!-- Interaction_concat&#45;&gt;Interaction_matmul -->
<g id="edge17" class="edge">
<title>Interaction_concat&#45;&gt;Interaction_matmul</title>
<path fill="none" stroke="black" d="M552.18,-559.54C563.21,-569.47 574.11,-581.93 580,-596 588.93,-617.32 590.32,-627.32 580,-648 574.11,-659.8 564.74,-669.92 554.42,-678.33"/>
<polygon fill="black" stroke="black" points="552.23,-675.59 546.38,-684.42 556.47,-681.17 552.23,-675.59"/>
</g>
<!-- Interaction_tranpose&#45;&gt;Interaction_matmul -->
<g id="edge18" class="edge">
<title>Interaction_tranpose&#45;&gt;Interaction_matmul</title>
<path fill="none" stroke="black" d="M495.45,-647.87C495.93,-656.15 496.47,-665.51 496.99,-674.39"/>
<polygon fill="black" stroke="black" points="493.5,-674.7 497.57,-684.48 500.49,-674.29 493.5,-674.7"/>
</g>
<!-- Interaction_mask -->
<g id="node15" class="node">
<title>Interaction_mask</title>
<polygon fill="#b2dfee" stroke="#b2dfee" points="418.5,-772.5 418.5,-823.5 579.5,-823.5 579.5,-772.5 418.5,-772.5"/>
<text text-anchor="middle" x="446.5" y="-813.1" font-family="Times,serif" font-size="8.00">name</text>
<polyline fill="none" stroke="#b2dfee" points="418.5,-806.5 474.5,-806.5 "/>
<text text-anchor="middle" x="446.5" y="-796.1" font-family="Times,serif" font-size="8.00">type</text>
<polyline fill="none" stroke="#b2dfee" points="418.5,-789.5 474.5,-789.5 "/>
<text text-anchor="middle" x="446.5" y="-779.1" font-family="Times,serif" font-size="8.00">out_shape</text>
<polyline fill="none" stroke="#b2dfee" points="474.5,-772.5 474.5,-823.5 "/>
<text text-anchor="middle" x="527" y="-813.1" font-family="Times,serif" font-size="8.00">Interaction_mask</text>
<polyline fill="none" stroke="#b2dfee" points="474.5,-806.5 579.5,-806.5 "/>
<text text-anchor="middle" x="527" y="-796.1" font-family="Times,serif" font-size="8.00">Mask</text>
<polyline fill="none" stroke="#b2dfee" points="474.5,-789.5 579.5,-789.5 "/>
<text text-anchor="middle" x="527" y="-779.1" font-family="Times,serif" font-size="8.00">[batch, 27*26/2=351]</text>
</g>
<!-- Interaction_matmul&#45;&gt;Interaction_mask -->
<g id="edge19" class="edge">
<title>Interaction_matmul&#45;&gt;Interaction_mask</title>
<path fill="none" stroke="black" d="M499,-735.87C499,-744.15 499,-753.51 499,-762.39"/>
<polygon fill="black" stroke="black" points="495.5,-762.48 499,-772.48 502.5,-762.48 495.5,-762.48"/>
</g>
<!-- Interaction_mask&#45;&gt;Interaction_concat_top -->
<g id="edge21" class="edge">
<title>Interaction_mask&#45;&gt;Interaction_concat_top</title>
<path fill="none" stroke="black" d="M499,-823.87C499,-832.15 499,-841.51 499,-850.39"/>
<polygon fill="black" stroke="black" points="495.5,-850.48 499,-860.48 502.5,-850.48 495.5,-850.48"/>
</g>
<!-- MLP_Top_1 -->
<g id="node17" class="node">
<title>MLP_Top_1</title>
<polygon fill="#b2dfee" stroke="#b2dfee" points="438.5,-948.5 438.5,-1016.5 559.5,-1016.5 559.5,-948.5 438.5,-948.5"/>
<text text-anchor="middle" x="466.5" y="-1006.1" font-family="Times,serif" font-size="8.00">name</text>
<polyline fill="none" stroke="#b2dfee" points="438.5,-999.5 494.5,-999.5 "/>
<text text-anchor="middle" x="466.5" y="-989.1" font-family="Times,serif" font-size="8.00">type</text>
<polyline fill="none" stroke="#b2dfee" points="438.5,-982.5 494.5,-982.5 "/>
<text text-anchor="middle" x="466.5" y="-972.1" font-family="Times,serif" font-size="8.00">activation</text>
<polyline fill="none" stroke="#b2dfee" points="438.5,-965.5 494.5,-965.5 "/>
<text text-anchor="middle" x="466.5" y="-955.1" font-family="Times,serif" font-size="8.00">out_shape</text>
<polyline fill="none" stroke="#b2dfee" points="494.5,-948.5 494.5,-1016.5 "/>
<text text-anchor="middle" x="527" y="-1006.1" font-family="Times,serif" font-size="8.00">MLP_Top_1</text>
<polyline fill="none" stroke="#b2dfee" points="494.5,-999.5 559.5,-999.5 "/>
<text text-anchor="middle" x="527" y="-989.1" font-family="Times,serif" font-size="8.00">Dense</text>
<polyline fill="none" stroke="#b2dfee" points="494.5,-982.5 559.5,-982.5 "/>
<text text-anchor="middle" x="527" y="-972.1" font-family="Times,serif" font-size="8.00">Relu</text>
<polyline fill="none" stroke="#b2dfee" points="494.5,-965.5 559.5,-965.5 "/>
<text text-anchor="middle" x="527" y="-955.1" font-family="Times,serif" font-size="8.00">[batch, 512]</text>
</g>
<!-- Interaction_concat_top&#45;&gt;MLP_Top_1 -->
<g id="edge22" class="edge">
<title>Interaction_concat_top&#45;&gt;MLP_Top_1</title>
<path fill="none" stroke="black" d="M499,-911.83C499,-919.93 499,-929.19 499,-938.24"/>
<polygon fill="black" stroke="black" points="495.5,-938.31 499,-948.31 502.5,-938.31 495.5,-938.31"/>
</g>
<!-- MLP_Top_2 -->
<g id="node18" class="node">
<title>MLP_Top_2</title>
<polygon fill="#b2dfee" stroke="#b2dfee" points="438.5,-1053.5 438.5,-1121.5 559.5,-1121.5 559.5,-1053.5 438.5,-1053.5"/>
<text text-anchor="middle" x="466.5" y="-1111.1" font-family="Times,serif" font-size="8.00">name</text>
<polyline fill="none" stroke="#b2dfee" points="438.5,-1104.5 494.5,-1104.5 "/>
<text text-anchor="middle" x="466.5" y="-1094.1" font-family="Times,serif" font-size="8.00">type</text>
<polyline fill="none" stroke="#b2dfee" points="438.5,-1087.5 494.5,-1087.5 "/>
<text text-anchor="middle" x="466.5" y="-1077.1" font-family="Times,serif" font-size="8.00">activation</text>
<polyline fill="none" stroke="#b2dfee" points="438.5,-1070.5 494.5,-1070.5 "/>
<text text-anchor="middle" x="466.5" y="-1060.1" font-family="Times,serif" font-size="8.00">out_shape</text>
<polyline fill="none" stroke="#b2dfee" points="494.5,-1053.5 494.5,-1121.5 "/>
<text text-anchor="middle" x="527" y="-1111.1" font-family="Times,serif" font-size="8.00">MLP_Top_2</text>
<polyline fill="none" stroke="#b2dfee" points="494.5,-1104.5 559.5,-1104.5 "/>
<text text-anchor="middle" x="527" y="-1094.1" font-family="Times,serif" font-size="8.00">Dense</text>
<polyline fill="none" stroke="#b2dfee" points="494.5,-1087.5 559.5,-1087.5 "/>
<text text-anchor="middle" x="527" y="-1077.1" font-family="Times,serif" font-size="8.00">Relu</text>
<polyline fill="none" stroke="#b2dfee" points="494.5,-1070.5 559.5,-1070.5 "/>
<text text-anchor="middle" x="527" y="-1060.1" font-family="Times,serif" font-size="8.00">[batch, 256]</text>
</g>
<!-- MLP_Top_1&#45;&gt;MLP_Top_2 -->
<g id="edge23" class="edge">
<title>MLP_Top_1&#45;&gt;MLP_Top_2</title>
<path fill="none" stroke="black" d="M499,-1016.66C499,-1025.11 499,-1034.32 499,-1043.2"/>
<polygon fill="black" stroke="black" points="495.5,-1043.41 499,-1053.41 502.5,-1043.41 495.5,-1043.41"/>
</g>
<!-- MLP_Top_3 -->
<g id="node19" class="node">
<title>MLP_Top_3</title>
<polygon fill="#b2dfee" stroke="#b2dfee" points="440,-1158.5 440,-1226.5 558,-1226.5 558,-1158.5 440,-1158.5"/>
<text text-anchor="middle" x="468" y="-1216.1" font-family="Times,serif" font-size="8.00">name</text>
<polyline fill="none" stroke="#b2dfee" points="440,-1209.5 496,-1209.5 "/>
<text text-anchor="middle" x="468" y="-1199.1" font-family="Times,serif" font-size="8.00">type</text>
<polyline fill="none" stroke="#b2dfee" points="440,-1192.5 496,-1192.5 "/>
<text text-anchor="middle" x="468" y="-1182.1" font-family="Times,serif" font-size="8.00">activation</text>
<polyline fill="none" stroke="#b2dfee" points="440,-1175.5 496,-1175.5 "/>
<text text-anchor="middle" x="468" y="-1165.1" font-family="Times,serif" font-size="8.00">out_shape</text>
<polyline fill="none" stroke="#b2dfee" points="496,-1158.5 496,-1226.5 "/>
<text text-anchor="middle" x="527" y="-1216.1" font-family="Times,serif" font-size="8.00">MLP_Top_3</text>
<polyline fill="none" stroke="#b2dfee" points="496,-1209.5 558,-1209.5 "/>
<text text-anchor="middle" x="527" y="-1199.1" font-family="Times,serif" font-size="8.00">Dense</text>
<polyline fill="none" stroke="#b2dfee" points="496,-1192.5 558,-1192.5 "/>
<text text-anchor="middle" x="527" y="-1182.1" font-family="Times,serif" font-size="8.00">Sigmoid</text>
<polyline fill="none" stroke="#b2dfee" points="496,-1175.5 558,-1175.5 "/>
<text text-anchor="middle" x="527" y="-1165.1" font-family="Times,serif" font-size="8.00">[batch, 1]</text>
</g>
<!-- MLP_Top_2&#45;&gt;MLP_Top_3 -->
<g id="edge24" class="edge">
<title>MLP_Top_2&#45;&gt;MLP_Top_3</title>
<path fill="none" stroke="black" d="M499,-1121.66C499,-1130.11 499,-1139.32 499,-1148.2"/>
<polygon fill="black" stroke="black" points="495.5,-1148.41 499,-1158.41 502.5,-1148.41 495.5,-1148.41"/>
</g>
</g>
</svg>
