<?xml version="1.0" encoding="UTF-8" standalone="no"?>
<!DOCTYPE svg PUBLIC "-//W3C//DTD SVG 1.1//EN"
 "http://www.w3.org/Graphics/SVG/1.1/DTD/svg11.dtd">
<!-- Generated by graphviz version 2.43.0 (0)
 -->
<!-- Title: DLRM Pages: 1 -->
<svg width="1400pt" height="1251pt"
 viewBox="0.00 0.00 1400.00 1251.00" xmlns="http://www.w3.org/2000/svg" xmlns:xlink="http://www.w3.org/1999/xlink">
<g id="graph0" class="graph" transform="scale(1 1) rotate(0) translate(4 1247)">
<title>DLRM</title>
<polygon fill="white" stroke="transparent" points="-4,4 -4,-1247 1396,-1247 1396,4 -4,4"/>
<g id="clust1" class="cluster">
<title>cluster_MLP_Bottom</title>
<polygon fill="none" stroke="black" points="8,-80 8,-480 188,-480 188,-80 8,-80"/>
</g>
<g id="clust2" class="cluster">
<title>cluster_Embedding</title>
<polygon fill="none" stroke="black" points="196,-395 196,-480 1384,-480 1384,-395 196,-395"/>
</g>
<g id="clust3" class="cluster">
<title>cluster_Interaction</title>
<polygon fill="none" stroke="black" points="428,-500 428,-920 648,-920 648,-500 428,-500"/>
</g>
<g id="clust4" class="cluster">
<title>cluster_MLP_Top</title>
<polygon fill="none" stroke="black" points="451,-940 451,-1235 615,-1235 615,-940 451,-940"/>
</g>
<!-- dense_input -->
<g id="node1" class="node">
<title>dense_input</title>
<polygon fill="#b2dfee" stroke="#b2dfee" points="1.5,-0.5 1.5,-51.5 194.5,-51.5 194.5,-0.5 1.5,-0.5"/>
<text text-anchor="middle" x="21.5" y="-41.1" font-family="Times,serif" font-size="8.00">name</text>
<polyline fill="none" stroke="#b2dfee" points="1.5,-34.5 41.5,-34.5 "/>
<text text-anchor="middle" x="21.5" y="-24.1" font-family="Times,serif" font-size="8.00">type</text>
<polyline fill="none" stroke="#b2dfee" points="1.5,-17.5 41.5,-17.5 "/>
<text text-anchor="middle" x="21.5" y="-7.1" font-family="Times,serif" font-size="8.00">shape</text>
<polyline fill="none" stroke="#b2dfee" points="41.5,-0.5 41.5,-51.5 "/>
<text text-anchor="middle" x="118" y="-41.1" font-family="Times,serif" font-size="8.00">dense_input</text>
<polyline fill="none" stroke="#b2dfee" points="41.5,-34.5 194.5,-34.5 "/>
<text text-anchor="middle" x="118" y="-24.1" font-family="Times,serif" font-size="8.00">Data</text>
<polyline fill="none" stroke="#b2dfee" points="41.5,-17.5 194.5,-17.5 "/>
<text text-anchor="middle" x="118" y="-7.1" font-family="Times,serif" font-size="8.00">[&#39;batch&#39;, &#39;dense_feature_num=13&#39;]</text>
</g>
<!-- cluster_MLP_Bottom_1 -->
<g id="node3" class="node">
<title>cluster_MLP_Bottom_1</title>
<polygon fill="#b2dfee" stroke="#b2dfee" points="16.5,-88.5 16.5,-156.5 179.5,-156.5 179.5,-88.5 16.5,-88.5"/>
<text text-anchor="middle" x="44.5" y="-146.1" font-family="Times,serif" font-size="8.00">name</text>
<polyline fill="none" stroke="#b2dfee" points="16.5,-139.5 72.5,-139.5 "/>
<text text-anchor="middle" x="44.5" y="-129.1" font-family="Times,serif" font-size="8.00">type</text>
<polyline fill="none" stroke="#b2dfee" points="16.5,-122.5 72.5,-122.5 "/>
<text text-anchor="middle" x="44.5" y="-112.1" font-family="Times,serif" font-size="8.00">activation</text>
<polyline fill="none" stroke="#b2dfee" points="16.5,-105.5 72.5,-105.5 "/>
<text text-anchor="middle" x="44.5" y="-95.1" font-family="Times,serif" font-size="8.00">out_shape</text>
<polyline fill="none" stroke="#b2dfee" points="72.5,-88.5 72.5,-156.5 "/>
<text text-anchor="middle" x="126" y="-146.1" font-family="Times,serif" font-size="8.00">cluster_MLP_Bottom_1</text>
<polyline fill="none" stroke="#b2dfee" points="72.5,-139.5 179.5,-139.5 "/>
<text text-anchor="middle" x="126" y="-129.1" font-family="Times,serif" font-size="8.00">Dense</text>
<polyline fill="none" stroke="#b2dfee" points="72.5,-122.5 179.5,-122.5 "/>
<text text-anchor="middle" x="126" y="-112.1" font-family="Times,serif" font-size="8.00">Relu</text>
<polyline fill="none" stroke="#b2dfee" points="72.5,-105.5 179.5,-105.5 "/>
<text text-anchor="middle" x="126" y="-95.1" font-family="Times,serif" font-size="8.00">[&#39;batch&#39;, 512]</text>
</g>
<!-- dense_input&#45;&gt;cluster_MLP_Bottom_1 -->
<g id="edge1" class="edge">
<title>dense_input&#45;&gt;cluster_MLP_Bottom_1</title>
<path fill="none" stroke="black" d="M98,-51.83C98,-59.93 98,-69.19 98,-78.24"/>
<polygon fill="black" stroke="black" points="94.5,-78.31 98,-88.31 101.5,-78.31 94.5,-78.31"/>
</g>
<!-- spare_input -->
<g id="node2" class="node">
<title>spare_input</title>
<polygon fill="#b2dfee" stroke="#b2dfee" points="694,-307 694,-358 886,-358 886,-307 694,-307"/>
<text text-anchor="middle" x="714" y="-347.6" font-family="Times,serif" font-size="8.00">name</text>
<polyline fill="none" stroke="#b2dfee" points="694,-341 734,-341 "/>
<text text-anchor="middle" x="714" y="-330.6" font-family="Times,serif" font-size="8.00">type</text>
<polyline fill="none" stroke="#b2dfee" points="694,-324 734,-324 "/>
<text text-anchor="middle" x="714" y="-313.6" font-family="Times,serif" font-size="8.00">shape</text>
<polyline fill="none" stroke="#b2dfee" points="734,-307 734,-358 "/>
<text text-anchor="middle" x="810" y="-347.6" font-family="Times,serif" font-size="8.00">spare_input</text>
<polyline fill="none" stroke="#b2dfee" points="734,-341 886,-341 "/>
<text text-anchor="middle" x="810" y="-330.6" font-family="Times,serif" font-size="8.00">Data</text>
<polyline fill="none" stroke="#b2dfee" points="734,-324 886,-324 "/>
<text text-anchor="middle" x="810" y="-313.6" font-family="Times,serif" font-size="8.00">[&#39;spare_feature_num=26&#39;, &#39;batch&#39;]</text>
</g>
<!-- cluster_Embedding_c1 -->
<g id="node7" class="node">
<title>cluster_Embedding_c1</title>
<polygon fill="#b2dfee" stroke="#b2dfee" points="1156,-403.5 1156,-471.5 1376,-471.5 1376,-403.5 1156,-403.5"/>
<text text-anchor="middle" x="1196" y="-461.1" font-family="Times,serif" font-size="8.00">name</text>
<polyline fill="none" stroke="#b2dfee" points="1156,-454.5 1236,-454.5 "/>
<text text-anchor="middle" x="1196" y="-444.1" font-family="Times,serif" font-size="8.00">type</text>
<polyline fill="none" stroke="#b2dfee" points="1156,-437.5 1236,-437.5 "/>
<text text-anchor="middle" x="1196" y="-427.1" font-family="Times,serif" font-size="8.00">embedding_size</text>
<polyline fill="none" stroke="#b2dfee" points="1156,-420.5 1236,-420.5 "/>
<text text-anchor="middle" x="1196" y="-410.1" font-family="Times,serif" font-size="8.00">out_shape</text>
<polyline fill="none" stroke="#b2dfee" points="1236,-403.5 1236,-471.5 "/>
<text text-anchor="middle" x="1306" y="-461.1" font-family="Times,serif" font-size="8.00">cluster_Embedding_c1</text>
<polyline fill="none" stroke="#b2dfee" points="1236,-454.5 1376,-454.5 "/>
<text text-anchor="middle" x="1306" y="-444.1" font-family="Times,serif" font-size="8.00">Embedding</text>
<polyline fill="none" stroke="#b2dfee" points="1236,-437.5 1376,-437.5 "/>
<text text-anchor="middle" x="1306" y="-427.1" font-family="Times,serif" font-size="8.00">c1</text>
<polyline fill="none" stroke="#b2dfee" points="1236,-420.5 1376,-420.5 "/>
<text text-anchor="middle" x="1306" y="-410.1" font-family="Times,serif" font-size="8.00">[&#39;batch&#39;, &#39;embedding_dim=16&#39;]</text>
</g>
<!-- spare_input&#45;&gt;cluster_Embedding_c1 -->
<g id="edge5" class="edge">
<title>spare_input&#45;&gt;cluster_Embedding_c1</title>
<path fill="none" stroke="black" d="M886.37,-345.71C958.74,-355.93 1059.93,-372.48 1147,-395 1153.4,-396.66 1159.96,-398.5 1166.53,-400.46"/>
<polygon fill="black" stroke="black" points="1165.58,-403.83 1176.17,-403.42 1167.63,-397.14 1165.58,-403.83"/>
</g>
<!-- cluster_Embedding_c2 -->
<g id="node8" class="node">
<title>cluster_Embedding_c2</title>
<polygon fill="#b2dfee" stroke="#b2dfee" points="918,-403.5 918,-471.5 1138,-471.5 1138,-403.5 918,-403.5"/>
<text text-anchor="middle" x="958" y="-461.1" font-family="Times,serif" font-size="8.00">name</text>
<polyline fill="none" stroke="#b2dfee" points="918,-454.5 998,-454.5 "/>
<text text-anchor="middle" x="958" y="-444.1" font-family="Times,serif" font-size="8.00">type</text>
<polyline fill="none" stroke="#b2dfee" points="918,-437.5 998,-437.5 "/>
<text text-anchor="middle" x="958" y="-427.1" font-family="Times,serif" font-size="8.00">embedding_size</text>
<polyline fill="none" stroke="#b2dfee" points="918,-420.5 998,-420.5 "/>
<text text-anchor="middle" x="958" y="-410.1" font-family="Times,serif" font-size="8.00">out_shape</text>
<polyline fill="none" stroke="#b2dfee" points="998,-403.5 998,-471.5 "/>
<text text-anchor="middle" x="1068" y="-461.1" font-family="Times,serif" font-size="8.00">cluster_Embedding_c2</text>
<polyline fill="none" stroke="#b2dfee" points="998,-454.5 1138,-454.5 "/>
<text text-anchor="middle" x="1068" y="-444.1" font-family="Times,serif" font-size="8.00">Embedding</text>
<polyline fill="none" stroke="#b2dfee" points="998,-437.5 1138,-437.5 "/>
<text text-anchor="middle" x="1068" y="-427.1" font-family="Times,serif" font-size="8.00">c2</text>
<polyline fill="none" stroke="#b2dfee" points="998,-420.5 1138,-420.5 "/>
<text text-anchor="middle" x="1068" y="-410.1" font-family="Times,serif" font-size="8.00">[&#39;batch&#39;, &#39;embedding_dim=16&#39;]</text>
</g>
<!-- spare_input&#45;&gt;cluster_Embedding_c2 -->
<g id="edge6" class="edge">
<title>spare_input&#45;&gt;cluster_Embedding_c2</title>
<path fill="none" stroke="black" d="M846.7,-358.04C875.24,-370.39 910.42,-385.62 942.18,-399.36"/>
<polygon fill="black" stroke="black" points="940.91,-402.62 951.47,-403.38 943.69,-396.2 940.91,-402.62"/>
</g>
<!-- cluster_Embedding_c3 -->
<g id="node9" class="node">
<title>cluster_Embedding_c3</title>
<polygon fill="#b2dfee" stroke="#b2dfee" points="680,-403.5 680,-471.5 900,-471.5 900,-403.5 680,-403.5"/>
<text text-anchor="middle" x="720" y="-461.1" font-family="Times,serif" font-size="8.00">name</text>
<polyline fill="none" stroke="#b2dfee" points="680,-454.5 760,-454.5 "/>
<text text-anchor="middle" x="720" y="-444.1" font-family="Times,serif" font-size="8.00">type</text>
<polyline fill="none" stroke="#b2dfee" points="680,-437.5 760,-437.5 "/>
<text text-anchor="middle" x="720" y="-427.1" font-family="Times,serif" font-size="8.00">embedding_size</text>
<polyline fill="none" stroke="#b2dfee" points="680,-420.5 760,-420.5 "/>
<text text-anchor="middle" x="720" y="-410.1" font-family="Times,serif" font-size="8.00">out_shape</text>
<polyline fill="none" stroke="#b2dfee" points="760,-403.5 760,-471.5 "/>
<text text-anchor="middle" x="830" y="-461.1" font-family="Times,serif" font-size="8.00">cluster_Embedding_c3</text>
<polyline fill="none" stroke="#b2dfee" points="760,-454.5 900,-454.5 "/>
<text text-anchor="middle" x="830" y="-444.1" font-family="Times,serif" font-size="8.00">Embedding</text>
<polyline fill="none" stroke="#b2dfee" points="760,-437.5 900,-437.5 "/>
<text text-anchor="middle" x="830" y="-427.1" font-family="Times,serif" font-size="8.00">c3</text>
<polyline fill="none" stroke="#b2dfee" points="760,-420.5 900,-420.5 "/>
<text text-anchor="middle" x="830" y="-410.1" font-family="Times,serif" font-size="8.00">[&#39;batch&#39;, &#39;embedding_dim=16&#39;]</text>
</g>
<!-- spare_input&#45;&gt;cluster_Embedding_c3 -->
<g id="edge7" class="edge">
<title>spare_input&#45;&gt;cluster_Embedding_c3</title>
<path fill="none" stroke="black" d="M790,-358.17C790,-368.67 790,-381.22 790,-393.18"/>
<polygon fill="black" stroke="black" points="786.5,-393.46 790,-403.46 793.5,-393.46 786.5,-393.46"/>
</g>
<!-- cluster_Embedding_cx -->
<g id="node10" class="node">
<title>cluster_Embedding_cx</title>
<polygon fill="#b2dfee" stroke="#b2dfee" points="442,-403.5 442,-471.5 662,-471.5 662,-403.5 442,-403.5"/>
<text text-anchor="middle" x="482" y="-461.1" font-family="Times,serif" font-size="8.00">name</text>
<polyline fill="none" stroke="#b2dfee" points="442,-454.5 522,-454.5 "/>
<text text-anchor="middle" x="482" y="-444.1" font-family="Times,serif" font-size="8.00">type</text>
<polyline fill="none" stroke="#b2dfee" points="442,-437.5 522,-437.5 "/>
<text text-anchor="middle" x="482" y="-427.1" font-family="Times,serif" font-size="8.00">embedding_size</text>
<polyline fill="none" stroke="#b2dfee" points="442,-420.5 522,-420.5 "/>
<text text-anchor="middle" x="482" y="-410.1" font-family="Times,serif" font-size="8.00">out_shape</text>
<polyline fill="none" stroke="#b2dfee" points="522,-403.5 522,-471.5 "/>
<text text-anchor="middle" x="592" y="-461.1" font-family="Times,serif" font-size="8.00">cluster_Embedding_cx</text>
<polyline fill="none" stroke="#b2dfee" points="522,-454.5 662,-454.5 "/>
<text text-anchor="middle" x="592" y="-444.1" font-family="Times,serif" font-size="8.00">Embedding</text>
<polyline fill="none" stroke="#b2dfee" points="522,-437.5 662,-437.5 "/>
<text text-anchor="middle" x="592" y="-427.1" font-family="Times,serif" font-size="8.00">cx</text>
<polyline fill="none" stroke="#b2dfee" points="522,-420.5 662,-420.5 "/>
<text text-anchor="middle" x="592" y="-410.1" font-family="Times,serif" font-size="8.00">[&#39;batch&#39;, &#39;embedding_dim=16&#39;]</text>
</g>
<!-- spare_input&#45;&gt;cluster_Embedding_cx -->
<g id="edge8" class="edge">
<title>spare_input&#45;&gt;cluster_Embedding_cx</title>
<path fill="none" stroke="black" d="M733.3,-358.04C704.76,-370.39 669.58,-385.62 637.82,-399.36"/>
<polygon fill="black" stroke="black" points="636.31,-396.2 628.53,-403.38 639.09,-402.62 636.31,-396.2"/>
</g>
<!-- cluster_Embedding_c26 -->
<g id="node11" class="node">
<title>cluster_Embedding_c26</title>
<polygon fill="#b2dfee" stroke="#b2dfee" points="204,-403.5 204,-471.5 424,-471.5 424,-403.5 204,-403.5"/>
<text text-anchor="middle" x="244" y="-461.1" font-family="Times,serif" font-size="8.00">name</text>
<polyline fill="none" stroke="#b2dfee" points="204,-454.5 284,-454.5 "/>
<text text-anchor="middle" x="244" y="-444.1" font-family="Times,serif" font-size="8.00">type</text>
<polyline fill="none" stroke="#b2dfee" points="204,-437.5 284,-437.5 "/>
<text text-anchor="middle" x="244" y="-427.1" font-family="Times,serif" font-size="8.00">embedding_size</text>
<polyline fill="none" stroke="#b2dfee" points="204,-420.5 284,-420.5 "/>
<text text-anchor="middle" x="244" y="-410.1" font-family="Times,serif" font-size="8.00">out_shape</text>
<polyline fill="none" stroke="#b2dfee" points="284,-403.5 284,-471.5 "/>
<text text-anchor="middle" x="354" y="-461.1" font-family="Times,serif" font-size="8.00">cluster_Embedding_c26</text>
<polyline fill="none" stroke="#b2dfee" points="284,-454.5 424,-454.5 "/>
<text text-anchor="middle" x="354" y="-444.1" font-family="Times,serif" font-size="8.00">Embedding</text>
<polyline fill="none" stroke="#b2dfee" points="284,-437.5 424,-437.5 "/>
<text text-anchor="middle" x="354" y="-427.1" font-family="Times,serif" font-size="8.00">c26</text>
<polyline fill="none" stroke="#b2dfee" points="284,-420.5 424,-420.5 "/>
<text text-anchor="middle" x="354" y="-410.1" font-family="Times,serif" font-size="8.00">[&#39;batch&#39;, &#39;embedding_dim=16&#39;]</text>
</g>
<!-- spare_input&#45;&gt;cluster_Embedding_c26 -->
<g id="edge9" class="edge">
<title>spare_input&#45;&gt;cluster_Embedding_c26</title>
<path fill="none" stroke="black" d="M693.63,-345.71C621.26,-355.93 520.07,-372.48 433,-395 426.6,-396.66 420.04,-398.5 413.47,-400.46"/>
<polygon fill="black" stroke="black" points="412.37,-397.14 403.83,-403.42 414.42,-403.83 412.37,-397.14"/>
</g>
<!-- cluster_MLP_Bottom_2 -->
<g id="node4" class="node">
<title>cluster_MLP_Bottom_2</title>
<polygon fill="#b2dfee" stroke="#b2dfee" points="16.5,-193.5 16.5,-261.5 179.5,-261.5 179.5,-193.5 16.5,-193.5"/>
<text text-anchor="middle" x="44.5" y="-251.1" font-family="Times,serif" font-size="8.00">name</text>
<polyline fill="none" stroke="#b2dfee" points="16.5,-244.5 72.5,-244.5 "/>
<text text-anchor="middle" x="44.5" y="-234.1" font-family="Times,serif" font-size="8.00">type</text>
<polyline fill="none" stroke="#b2dfee" points="16.5,-227.5 72.5,-227.5 "/>
<text text-anchor="middle" x="44.5" y="-217.1" font-family="Times,serif" font-size="8.00">activation</text>
<polyline fill="none" stroke="#b2dfee" points="16.5,-210.5 72.5,-210.5 "/>
<text text-anchor="middle" x="44.5" y="-200.1" font-family="Times,serif" font-size="8.00">out_shape</text>
<polyline fill="none" stroke="#b2dfee" points="72.5,-193.5 72.5,-261.5 "/>
<text text-anchor="middle" x="126" y="-251.1" font-family="Times,serif" font-size="8.00">cluster_MLP_Bottom_2</text>
<polyline fill="none" stroke="#b2dfee" points="72.5,-244.5 179.5,-244.5 "/>
<text text-anchor="middle" x="126" y="-234.1" font-family="Times,serif" font-size="8.00">Dense</text>
<polyline fill="none" stroke="#b2dfee" points="72.5,-227.5 179.5,-227.5 "/>
<text text-anchor="middle" x="126" y="-217.1" font-family="Times,serif" font-size="8.00">Relu</text>
<polyline fill="none" stroke="#b2dfee" points="72.5,-210.5 179.5,-210.5 "/>
<text text-anchor="middle" x="126" y="-200.1" font-family="Times,serif" font-size="8.00">[&#39;batch&#39;, 256]</text>
</g>
<!-- cluster_MLP_Bottom_1&#45;&gt;cluster_MLP_Bottom_2 -->
<g id="edge2" class="edge">
<title>cluster_MLP_Bottom_1&#45;&gt;cluster_MLP_Bottom_2</title>
<path fill="none" stroke="black" d="M98,-156.66C98,-165.11 98,-174.32 98,-183.2"/>
<polygon fill="black" stroke="black" points="94.5,-183.41 98,-193.41 101.5,-183.41 94.5,-183.41"/>
</g>
<!-- cluster_MLP_Bottom_3 -->
<g id="node5" class="node">
<title>cluster_MLP_Bottom_3</title>
<polygon fill="#b2dfee" stroke="#b2dfee" points="16.5,-298.5 16.5,-366.5 179.5,-366.5 179.5,-298.5 16.5,-298.5"/>
<text text-anchor="middle" x="44.5" y="-356.1" font-family="Times,serif" font-size="8.00">name</text>
<polyline fill="none" stroke="#b2dfee" points="16.5,-349.5 72.5,-349.5 "/>
<text text-anchor="middle" x="44.5" y="-339.1" font-family="Times,serif" font-size="8.00">type</text>
<polyline fill="none" stroke="#b2dfee" points="16.5,-332.5 72.5,-332.5 "/>
<text text-anchor="middle" x="44.5" y="-322.1" font-family="Times,serif" font-size="8.00">activation</text>
<polyline fill="none" stroke="#b2dfee" points="16.5,-315.5 72.5,-315.5 "/>
<text text-anchor="middle" x="44.5" y="-305.1" font-family="Times,serif" font-size="8.00">out_shape</text>
<polyline fill="none" stroke="#b2dfee" points="72.5,-298.5 72.5,-366.5 "/>
<text text-anchor="middle" x="126" y="-356.1" font-family="Times,serif" font-size="8.00">cluster_MLP_Bottom_3</text>
<polyline fill="none" stroke="#b2dfee" points="72.5,-349.5 179.5,-349.5 "/>
<text text-anchor="middle" x="126" y="-339.1" font-family="Times,serif" font-size="8.00">Dense</text>
<polyline fill="none" stroke="#b2dfee" points="72.5,-332.5 179.5,-332.5 "/>
<text text-anchor="middle" x="126" y="-322.1" font-family="Times,serif" font-size="8.00">Relu</text>
<polyline fill="none" stroke="#b2dfee" points="72.5,-315.5 179.5,-315.5 "/>
<text text-anchor="middle" x="126" y="-305.1" font-family="Times,serif" font-size="8.00">[&#39;batch&#39;, 64]</text>
</g>
<!-- cluster_MLP_Bottom_2&#45;&gt;cluster_MLP_Bottom_3 -->
<g id="edge3" class="edge">
<title>cluster_MLP_Bottom_2&#45;&gt;cluster_MLP_Bottom_3</title>
<path fill="none" stroke="black" d="M98,-261.66C98,-270.11 98,-279.32 98,-288.2"/>
<polygon fill="black" stroke="black" points="94.5,-288.41 98,-298.41 101.5,-288.41 94.5,-288.41"/>
</g>
<!-- cluster_MLP_Bottom_4 -->
<g id="node6" class="node">
<title>cluster_MLP_Bottom_4</title>
<polygon fill="#b2dfee" stroke="#b2dfee" points="16.5,-403.5 16.5,-471.5 179.5,-471.5 179.5,-403.5 16.5,-403.5"/>
<text text-anchor="middle" x="44.5" y="-461.1" font-family="Times,serif" font-size="8.00">name</text>
<polyline fill="none" stroke="#b2dfee" points="16.5,-454.5 72.5,-454.5 "/>
<text text-anchor="middle" x="44.5" y="-444.1" font-family="Times,serif" font-size="8.00">type</text>
<polyline fill="none" stroke="#b2dfee" points="16.5,-437.5 72.5,-437.5 "/>
<text text-anchor="middle" x="44.5" y="-427.1" font-family="Times,serif" font-size="8.00">activation</text>
<polyline fill="none" stroke="#b2dfee" points="16.5,-420.5 72.5,-420.5 "/>
<text text-anchor="middle" x="44.5" y="-410.1" font-family="Times,serif" font-size="8.00">out_shape</text>
<polyline fill="none" stroke="#b2dfee" points="72.5,-403.5 72.5,-471.5 "/>
<text text-anchor="middle" x="126" y="-461.1" font-family="Times,serif" font-size="8.00">cluster_MLP_Bottom_4</text>
<polyline fill="none" stroke="#b2dfee" points="72.5,-454.5 179.5,-454.5 "/>
<text text-anchor="middle" x="126" y="-444.1" font-family="Times,serif" font-size="8.00">Dense</text>
<polyline fill="none" stroke="#b2dfee" points="72.5,-437.5 179.5,-437.5 "/>
<text text-anchor="middle" x="126" y="-427.1" font-family="Times,serif" font-size="8.00">Sigmoid</text>
<polyline fill="none" stroke="#b2dfee" points="72.5,-420.5 179.5,-420.5 "/>
<text text-anchor="middle" x="126" y="-410.1" font-family="Times,serif" font-size="8.00">[&#39;batch&#39;, 16]</text>
</g>
<!-- cluster_MLP_Bottom_3&#45;&gt;cluster_MLP_Bottom_4 -->
<g id="edge4" class="edge">
<title>cluster_MLP_Bottom_3&#45;&gt;cluster_MLP_Bottom_4</title>
<path fill="none" stroke="black" d="M98,-366.66C98,-375.11 98,-384.32 98,-393.2"/>
<polygon fill="black" stroke="black" points="94.5,-393.41 98,-403.41 101.5,-393.41 94.5,-393.41"/>
</g>
<!-- cluster_Interaction_concat -->
<g id="node12" class="node">
<title>cluster_Interaction_concat</title>
<polygon fill="#b2dfee" stroke="#b2dfee" points="463.5,-508.5 463.5,-559.5 640.5,-559.5 640.5,-508.5 463.5,-508.5"/>
<text text-anchor="middle" x="491.5" y="-549.1" font-family="Times,serif" font-size="8.00">name</text>
<polyline fill="none" stroke="#b2dfee" points="463.5,-542.5 519.5,-542.5 "/>
<text text-anchor="middle" x="491.5" y="-532.1" font-family="Times,serif" font-size="8.00">type</text>
<polyline fill="none" stroke="#b2dfee" points="463.5,-525.5 519.5,-525.5 "/>
<text text-anchor="middle" x="491.5" y="-515.1" font-family="Times,serif" font-size="8.00">out_shape</text>
<polyline fill="none" stroke="#b2dfee" points="519.5,-508.5 519.5,-559.5 "/>
<text text-anchor="middle" x="580" y="-549.1" font-family="Times,serif" font-size="8.00">cluster_Interaction_concat</text>
<polyline fill="none" stroke="#b2dfee" points="519.5,-542.5 640.5,-542.5 "/>
<text text-anchor="middle" x="580" y="-532.1" font-family="Times,serif" font-size="8.00">Concat</text>
<polyline fill="none" stroke="#b2dfee" points="519.5,-525.5 640.5,-525.5 "/>
<text text-anchor="middle" x="580" y="-515.1" font-family="Times,serif" font-size="8.00">[&#39;batch&#39;, 27, 16]</text>
</g>
<!-- cluster_MLP_Bottom_4&#45;&gt;cluster_Interaction_concat -->
<g id="edge10" class="edge">
<title>cluster_MLP_Bottom_4&#45;&gt;cluster_Interaction_concat</title>
<path fill="none" stroke="black" d="M167.29,-471.57C175.5,-474.74 183.86,-477.65 192,-480 278.38,-504.93 379.96,-518.52 453.16,-525.67"/>
<polygon fill="black" stroke="black" points="453.01,-529.18 463.3,-526.64 453.68,-522.21 453.01,-529.18"/>
</g>
<!-- cluster_Interaction_concat_top -->
<g id="node16" class="node">
<title>cluster_Interaction_concat_top</title>
<polygon fill="#b2dfee" stroke="#b2dfee" points="436.5,-860.5 436.5,-911.5 629.5,-911.5 629.5,-860.5 436.5,-860.5"/>
<text text-anchor="middle" x="464.5" y="-901.1" font-family="Times,serif" font-size="8.00">name</text>
<polyline fill="none" stroke="#b2dfee" points="436.5,-894.5 492.5,-894.5 "/>
<text text-anchor="middle" x="464.5" y="-884.1" font-family="Times,serif" font-size="8.00">type</text>
<polyline fill="none" stroke="#b2dfee" points="436.5,-877.5 492.5,-877.5 "/>
<text text-anchor="middle" x="464.5" y="-867.1" font-family="Times,serif" font-size="8.00">out_shape</text>
<polyline fill="none" stroke="#b2dfee" points="492.5,-860.5 492.5,-911.5 "/>
<text text-anchor="middle" x="561" y="-901.1" font-family="Times,serif" font-size="8.00">cluster_Interaction_concat_top</text>
<polyline fill="none" stroke="#b2dfee" points="492.5,-894.5 629.5,-894.5 "/>
<text text-anchor="middle" x="561" y="-884.1" font-family="Times,serif" font-size="8.00">Concat</text>
<polyline fill="none" stroke="#b2dfee" points="492.5,-877.5 629.5,-877.5 "/>
<text text-anchor="middle" x="561" y="-867.1" font-family="Times,serif" font-size="8.00">[&#39;batch&#39;, 367]</text>
</g>
<!-- cluster_MLP_Bottom_4&#45;&gt;cluster_Interaction_concat_top -->
<g id="edge20" class="edge">
<title>cluster_MLP_Bottom_4&#45;&gt;cluster_Interaction_concat_top</title>
<path fill="none" stroke="black" d="M151.78,-471.53C196.54,-503.6 253,-556.78 253,-621 253,-621 253,-621 253,-711 253,-795.93 347.09,-840.87 426.19,-863.64"/>
<polygon fill="black" stroke="black" points="425.68,-867.13 436.25,-866.44 427.55,-860.38 425.68,-867.13"/>
</g>
<!-- cluster_Embedding_c1&#45;&gt;cluster_Interaction_concat -->
<g id="edge11" class="edge">
<title>cluster_Embedding_c1&#45;&gt;cluster_Interaction_concat</title>
<path fill="none" stroke="black" d="M1178.97,-471.59C1168.31,-474.83 1157.48,-477.74 1147,-480 975.1,-517.03 769.89,-528.26 650.91,-531.62"/>
<polygon fill="black" stroke="black" points="650.63,-528.13 640.73,-531.89 650.82,-535.12 650.63,-528.13"/>
</g>
<!-- cluster_Embedding_c2&#45;&gt;cluster_Interaction_concat -->
<g id="edge12" class="edge">
<title>cluster_Embedding_c2&#45;&gt;cluster_Interaction_concat</title>
<path fill="none" stroke="black" d="M939.2,-471.5C929.1,-474.65 918.88,-477.57 909,-480 822.86,-501.21 722.79,-515.18 650.56,-523.42"/>
<polygon fill="black" stroke="black" points="650.1,-519.95 640.56,-524.54 650.89,-526.9 650.1,-519.95"/>
</g>
<!-- cluster_Embedding_c3&#45;&gt;cluster_Interaction_concat -->
<g id="edge13" class="edge">
<title>cluster_Embedding_c3&#45;&gt;cluster_Interaction_concat</title>
<path fill="none" stroke="black" d="M706.76,-471.55C679.54,-482.36 649.57,-494.26 623.31,-504.69"/>
<polygon fill="black" stroke="black" points="621.82,-501.51 613.81,-508.46 624.4,-508.02 621.82,-501.51"/>
</g>
<!-- cluster_Embedding_cx&#45;&gt;cluster_Interaction_concat -->
<g id="edge14" class="edge">
<title>cluster_Embedding_cx&#45;&gt;cluster_Interaction_concat</title>
<path fill="none" stroke="black" d="M552,-471.55C552,-480.18 552,-489.5 552,-498.22"/>
<polygon fill="black" stroke="black" points="548.5,-498.46 552,-508.46 555.5,-498.46 548.5,-498.46"/>
</g>
<!-- cluster_Embedding_c26&#45;&gt;cluster_Interaction_concat -->
<g id="edge15" class="edge">
<title>cluster_Embedding_c26&#45;&gt;cluster_Interaction_concat</title>
<path fill="none" stroke="black" d="M397.24,-471.55C424.46,-482.36 454.43,-494.26 480.69,-504.69"/>
<polygon fill="black" stroke="black" points="479.6,-508.02 490.19,-508.46 482.18,-501.51 479.6,-508.02"/>
</g>
<!-- cluster_Interaction_tranpose -->
<g id="node13" class="node">
<title>cluster_Interaction_tranpose</title>
<polygon fill="#b2dfee" stroke="#b2dfee" points="435.5,-596.5 435.5,-647.5 620.5,-647.5 620.5,-596.5 435.5,-596.5"/>
<text text-anchor="middle" x="463.5" y="-637.1" font-family="Times,serif" font-size="8.00">name</text>
<polyline fill="none" stroke="#b2dfee" points="435.5,-630.5 491.5,-630.5 "/>
<text text-anchor="middle" x="463.5" y="-620.1" font-family="Times,serif" font-size="8.00">type</text>
<polyline fill="none" stroke="#b2dfee" points="435.5,-613.5 491.5,-613.5 "/>
<text text-anchor="middle" x="463.5" y="-603.1" font-family="Times,serif" font-size="8.00">out_shape</text>
<polyline fill="none" stroke="#b2dfee" points="491.5,-596.5 491.5,-647.5 "/>
<text text-anchor="middle" x="556" y="-637.1" font-family="Times,serif" font-size="8.00">cluster_Interaction_tranpose</text>
<polyline fill="none" stroke="#b2dfee" points="491.5,-630.5 620.5,-630.5 "/>
<text text-anchor="middle" x="556" y="-620.1" font-family="Times,serif" font-size="8.00">Tranpose</text>
<polyline fill="none" stroke="#b2dfee" points="491.5,-613.5 620.5,-613.5 "/>
<text text-anchor="middle" x="556" y="-603.1" font-family="Times,serif" font-size="8.00">[&#39;batch&#39;, 16, 27]</text>
</g>
<!-- cluster_Interaction_concat&#45;&gt;cluster_Interaction_tranpose -->
<g id="edge16" class="edge">
<title>cluster_Interaction_concat&#45;&gt;cluster_Interaction_tranpose</title>
<path fill="none" stroke="black" d="M545.06,-559.87C542.72,-568.24 540.08,-577.72 537.58,-586.68"/>
<polygon fill="black" stroke="black" points="534.16,-585.91 534.84,-596.48 540.9,-587.79 534.16,-585.91"/>
</g>
<!-- cluster_Interaction_matmul -->
<g id="node14" class="node">
<title>cluster_Interaction_matmul</title>
<polygon fill="#b2dfee" stroke="#b2dfee" points="442.5,-684.5 442.5,-735.5 623.5,-735.5 623.5,-684.5 442.5,-684.5"/>
<text text-anchor="middle" x="470.5" y="-725.1" font-family="Times,serif" font-size="8.00">name</text>
<polyline fill="none" stroke="#b2dfee" points="442.5,-718.5 498.5,-718.5 "/>
<text text-anchor="middle" x="470.5" y="-708.1" font-family="Times,serif" font-size="8.00">type</text>
<polyline fill="none" stroke="#b2dfee" points="442.5,-701.5 498.5,-701.5 "/>
<text text-anchor="middle" x="470.5" y="-691.1" font-family="Times,serif" font-size="8.00">out_shape</text>
<polyline fill="none" stroke="#b2dfee" points="498.5,-684.5 498.5,-735.5 "/>
<text text-anchor="middle" x="561" y="-725.1" font-family="Times,serif" font-size="8.00">cluster_Interaction_matmul</text>
<polyline fill="none" stroke="#b2dfee" points="498.5,-718.5 623.5,-718.5 "/>
<text text-anchor="middle" x="561" y="-708.1" font-family="Times,serif" font-size="8.00">Matmul</text>
<polyline fill="none" stroke="#b2dfee" points="498.5,-701.5 623.5,-701.5 "/>
<text text-anchor="middle" x="561" y="-691.1" font-family="Times,serif" font-size="8.00">[&#39;batch&#39;, 27, 27]</text>
</g>
<!-- cluster_Interaction_concat&#45;&gt;cluster_Interaction_matmul -->
<g id="edge17" class="edge">
<title>cluster_Interaction_concat&#45;&gt;cluster_Interaction_matmul</title>
<path fill="none" stroke="black" d="M597.26,-559.61C610.26,-569.13 622.84,-581.32 630,-596 640.13,-616.77 641.18,-627.77 630,-648 623.19,-660.33 612.72,-670.51 601.15,-678.78"/>
<polygon fill="black" stroke="black" points="598.96,-676.03 592.56,-684.47 602.83,-681.86 598.96,-676.03"/>
</g>
<!-- cluster_Interaction_tranpose&#45;&gt;cluster_Interaction_matmul -->
<g id="edge18" class="edge">
<title>cluster_Interaction_tranpose&#45;&gt;cluster_Interaction_matmul</title>
<path fill="none" stroke="black" d="M529.45,-647.87C529.93,-656.15 530.47,-665.51 530.99,-674.39"/>
<polygon fill="black" stroke="black" points="527.5,-674.7 531.57,-684.48 534.49,-674.29 527.5,-674.7"/>
</g>
<!-- cluster_Interaction_mask -->
<g id="node15" class="node">
<title>cluster_Interaction_mask</title>
<polygon fill="#b2dfee" stroke="#b2dfee" points="447.5,-772.5 447.5,-823.5 618.5,-823.5 618.5,-772.5 447.5,-772.5"/>
<text text-anchor="middle" x="475.5" y="-813.1" font-family="Times,serif" font-size="8.00">name</text>
<polyline fill="none" stroke="#b2dfee" points="447.5,-806.5 503.5,-806.5 "/>
<text text-anchor="middle" x="475.5" y="-796.1" font-family="Times,serif" font-size="8.00">type</text>
<polyline fill="none" stroke="#b2dfee" points="447.5,-789.5 503.5,-789.5 "/>
<text text-anchor="middle" x="475.5" y="-779.1" font-family="Times,serif" font-size="8.00">out_shape</text>
<polyline fill="none" stroke="#b2dfee" points="503.5,-772.5 503.5,-823.5 "/>
<text text-anchor="middle" x="561" y="-813.1" font-family="Times,serif" font-size="8.00">cluster_Interaction_mask</text>
<polyline fill="none" stroke="#b2dfee" points="503.5,-806.5 618.5,-806.5 "/>
<text text-anchor="middle" x="561" y="-796.1" font-family="Times,serif" font-size="8.00">Mask</text>
<polyline fill="none" stroke="#b2dfee" points="503.5,-789.5 618.5,-789.5 "/>
<text text-anchor="middle" x="561" y="-779.1" font-family="Times,serif" font-size="8.00">[&#39;batch&#39;, &#39;27*26/2=351&#39;]</text>
</g>
<!-- cluster_Interaction_matmul&#45;&gt;cluster_Interaction_mask -->
<g id="edge19" class="edge">
<title>cluster_Interaction_matmul&#45;&gt;cluster_Interaction_mask</title>
<path fill="none" stroke="black" d="M533,-735.87C533,-744.15 533,-753.51 533,-762.39"/>
<polygon fill="black" stroke="black" points="529.5,-762.48 533,-772.48 536.5,-762.48 529.5,-762.48"/>
</g>
<!-- cluster_Interaction_mask&#45;&gt;cluster_Interaction_concat_top -->
<g id="edge21" class="edge">
<title>cluster_Interaction_mask&#45;&gt;cluster_Interaction_concat_top</title>
<path fill="none" stroke="black" d="M533,-823.87C533,-832.15 533,-841.51 533,-850.39"/>
<polygon fill="black" stroke="black" points="529.5,-850.48 533,-860.48 536.5,-850.48 529.5,-850.48"/>
</g>
<!-- cluster_MLP_Top_1 -->
<g id="node17" class="node">
<title>cluster_MLP_Top_1</title>
<polygon fill="#b2dfee" stroke="#b2dfee" points="458.5,-948.5 458.5,-1016.5 607.5,-1016.5 607.5,-948.5 458.5,-948.5"/>
<text text-anchor="middle" x="486.5" y="-1006.1" font-family="Times,serif" font-size="8.00">name</text>
<polyline fill="none" stroke="#b2dfee" points="458.5,-999.5 514.5,-999.5 "/>
<text text-anchor="middle" x="486.5" y="-989.1" font-family="Times,serif" font-size="8.00">type</text>
<polyline fill="none" stroke="#b2dfee" points="458.5,-982.5 514.5,-982.5 "/>
<text text-anchor="middle" x="486.5" y="-972.1" font-family="Times,serif" font-size="8.00">activation</text>
<polyline fill="none" stroke="#b2dfee" points="458.5,-965.5 514.5,-965.5 "/>
<text text-anchor="middle" x="486.5" y="-955.1" font-family="Times,serif" font-size="8.00">out_shape</text>
<polyline fill="none" stroke="#b2dfee" points="514.5,-948.5 514.5,-1016.5 "/>
<text text-anchor="middle" x="561" y="-1006.1" font-family="Times,serif" font-size="8.00">cluster_MLP_Top_1</text>
<polyline fill="none" stroke="#b2dfee" points="514.5,-999.5 607.5,-999.5 "/>
<text text-anchor="middle" x="561" y="-989.1" font-family="Times,serif" font-size="8.00">Dense</text>
<polyline fill="none" stroke="#b2dfee" points="514.5,-982.5 607.5,-982.5 "/>
<text text-anchor="middle" x="561" y="-972.1" font-family="Times,serif" font-size="8.00">Relu</text>
<polyline fill="none" stroke="#b2dfee" points="514.5,-965.5 607.5,-965.5 "/>
<text text-anchor="middle" x="561" y="-955.1" font-family="Times,serif" font-size="8.00">[&#39;batch&#39;, 512]</text>
</g>
<!-- cluster_Interaction_concat_top&#45;&gt;cluster_MLP_Top_1 -->
<g id="edge22" class="edge">
<title>cluster_Interaction_concat_top&#45;&gt;cluster_MLP_Top_1</title>
<path fill="none" stroke="black" d="M533,-911.83C533,-919.93 533,-929.19 533,-938.24"/>
<polygon fill="black" stroke="black" points="529.5,-938.31 533,-948.31 536.5,-938.31 529.5,-938.31"/>
</g>
<!-- cluster_MLP_Top_2 -->
<g id="node18" class="node">
<title>cluster_MLP_Top_2</title>
<polygon fill="#b2dfee" stroke="#b2dfee" points="458.5,-1053.5 458.5,-1121.5 607.5,-1121.5 607.5,-1053.5 458.5,-1053.5"/>
<text text-anchor="middle" x="486.5" y="-1111.1" font-family="Times,serif" font-size="8.00">name</text>
<polyline fill="none" stroke="#b2dfee" points="458.5,-1104.5 514.5,-1104.5 "/>
<text text-anchor="middle" x="486.5" y="-1094.1" font-family="Times,serif" font-size="8.00">type</text>
<polyline fill="none" stroke="#b2dfee" points="458.5,-1087.5 514.5,-1087.5 "/>
<text text-anchor="middle" x="486.5" y="-1077.1" font-family="Times,serif" font-size="8.00">activation</text>
<polyline fill="none" stroke="#b2dfee" points="458.5,-1070.5 514.5,-1070.5 "/>
<text text-anchor="middle" x="486.5" y="-1060.1" font-family="Times,serif" font-size="8.00">out_shape</text>
<polyline fill="none" stroke="#b2dfee" points="514.5,-1053.5 514.5,-1121.5 "/>
<text text-anchor="middle" x="561" y="-1111.1" font-family="Times,serif" font-size="8.00">cluster_MLP_Top_2</text>
<polyline fill="none" stroke="#b2dfee" points="514.5,-1104.5 607.5,-1104.5 "/>
<text text-anchor="middle" x="561" y="-1094.1" font-family="Times,serif" font-size="8.00">Dense</text>
<polyline fill="none" stroke="#b2dfee" points="514.5,-1087.5 607.5,-1087.5 "/>
<text text-anchor="middle" x="561" y="-1077.1" font-family="Times,serif" font-size="8.00">Relu</text>
<polyline fill="none" stroke="#b2dfee" points="514.5,-1070.5 607.5,-1070.5 "/>
<text text-anchor="middle" x="561" y="-1060.1" font-family="Times,serif" font-size="8.00">[&#39;batch&#39;, 256]</text>
</g>
<!-- cluster_MLP_Top_1&#45;&gt;cluster_MLP_Top_2 -->
<g id="edge23" class="edge">
<title>cluster_MLP_Top_1&#45;&gt;cluster_MLP_Top_2</title>
<path fill="none" stroke="black" d="M533,-1016.66C533,-1025.11 533,-1034.32 533,-1043.2"/>
<polygon fill="black" stroke="black" points="529.5,-1043.41 533,-1053.41 536.5,-1043.41 529.5,-1043.41"/>
</g>
<!-- cluster_MLP_Top_3 -->
<g id="node19" class="node">
<title>cluster_MLP_Top_3</title>
<polygon fill="#b2dfee" stroke="#b2dfee" points="458.5,-1158.5 458.5,-1226.5 607.5,-1226.5 607.5,-1158.5 458.5,-1158.5"/>
<text text-anchor="middle" x="486.5" y="-1216.1" font-family="Times,serif" font-size="8.00">name</text>
<polyline fill="none" stroke="#b2dfee" points="458.5,-1209.5 514.5,-1209.5 "/>
<text text-anchor="middle" x="486.5" y="-1199.1" font-family="Times,serif" font-size="8.00">type</text>
<polyline fill="none" stroke="#b2dfee" points="458.5,-1192.5 514.5,-1192.5 "/>
<text text-anchor="middle" x="486.5" y="-1182.1" font-family="Times,serif" font-size="8.00">activation</text>
<polyline fill="none" stroke="#b2dfee" points="458.5,-1175.5 514.5,-1175.5 "/>
<text text-anchor="middle" x="486.5" y="-1165.1" font-family="Times,serif" font-size="8.00">out_shape</text>
<polyline fill="none" stroke="#b2dfee" points="514.5,-1158.5 514.5,-1226.5 "/>
<text text-anchor="middle" x="561" y="-1216.1" font-family="Times,serif" font-size="8.00">cluster_MLP_Top_3</text>
<polyline fill="none" stroke="#b2dfee" points="514.5,-1209.5 607.5,-1209.5 "/>
<text text-anchor="middle" x="561" y="-1199.1" font-family="Times,serif" font-size="8.00">Dense</text>
<polyline fill="none" stroke="#b2dfee" points="514.5,-1192.5 607.5,-1192.5 "/>
<text text-anchor="middle" x="561" y="-1182.1" font-family="Times,serif" font-size="8.00">Sigmoid</text>
<polyline fill="none" stroke="#b2dfee" points="514.5,-1175.5 607.5,-1175.5 "/>
<text text-anchor="middle" x="561" y="-1165.1" font-family="Times,serif" font-size="8.00">[&#39;batch&#39;, 1]</text>
</g>
<!-- cluster_MLP_Top_2&#45;&gt;cluster_MLP_Top_3 -->
<g id="edge24" class="edge">
<title>cluster_MLP_Top_2&#45;&gt;cluster_MLP_Top_3</title>
<path fill="none" stroke="black" d="M533,-1121.66C533,-1130.11 533,-1139.32 533,-1148.2"/>
<polygon fill="black" stroke="black" points="529.5,-1148.41 533,-1158.41 536.5,-1148.41 529.5,-1148.41"/>
</g>
</g>
</svg>
