<?xml version="1.0" encoding="UTF-8" standalone="no"?>
<!DOCTYPE svg PUBLIC "-//W3C//DTD SVG 1.1//EN"
 "http://www.w3.org/Graphics/SVG/1.1/DTD/svg11.dtd">
<!-- Generated by graphviz version 2.43.0 (0)
 -->
<!-- Title: tinydnn Pages: 1 -->
<svg width="254pt" height="323pt"
 viewBox="0.00 0.00 254.00 323.00" xmlns="http://www.w3.org/2000/svg" xmlns:xlink="http://www.w3.org/1999/xlink">
<g id="graph0" class="graph" transform="scale(1 1) rotate(0) translate(4 319)">
<title>tinydnn</title>
<polygon fill="white" stroke="transparent" points="-4,4 -4,-319 250,-319 250,4 -4,4"/>
<!-- layer_1 -->
<g id="node1" class="node">
<title>layer_1</title>
<polygon fill="#b2dfee" stroke="#b2dfee" points="66,-212.5 66,-314.5 180,-314.5 180,-212.5 66,-212.5"/>
<text text-anchor="middle" x="98.5" y="-304.1" font-family="Times,serif" font-size="8.00">name</text>
<polyline fill="none" stroke="#b2dfee" points="66,-297.5 131,-297.5 "/>
<text text-anchor="middle" x="98.5" y="-287.1" font-family="Times,serif" font-size="8.00">Type</text>
<polyline fill="none" stroke="#b2dfee" points="66,-280.5 131,-280.5 "/>
<text text-anchor="middle" x="98.5" y="-270.1" font-family="Times,serif" font-size="8.00">kernel</text>
<polyline fill="none" stroke="#b2dfee" points="66,-263.5 131,-263.5 "/>
<text text-anchor="middle" x="98.5" y="-253.1" font-family="Times,serif" font-size="8.00">stride</text>
<polyline fill="none" stroke="#b2dfee" points="66,-246.5 131,-246.5 "/>
<text text-anchor="middle" x="98.5" y="-236.1" font-family="Times,serif" font-size="8.00">padding</text>
<polyline fill="none" stroke="#b2dfee" points="66,-229.5 131,-229.5 "/>
<text text-anchor="middle" x="98.5" y="-219.1" font-family="Times,serif" font-size="8.00">normal, relu</text>
<polyline fill="none" stroke="#b2dfee" points="131,-212.5 131,-314.5 "/>
<text text-anchor="middle" x="155.5" y="-304.1" font-family="Times,serif" font-size="8.00">layer_1</text>
<polyline fill="none" stroke="#b2dfee" points="131,-297.5 180,-297.5 "/>
<text text-anchor="middle" x="155.5" y="-287.1" font-family="Times,serif" font-size="8.00">Conv3D</text>
<polyline fill="none" stroke="#b2dfee" points="131,-280.5 180,-280.5 "/>
<text text-anchor="middle" x="155.5" y="-270.1" font-family="Times,serif" font-size="8.00">[1, 1, 1]</text>
<polyline fill="none" stroke="#b2dfee" points="131,-263.5 180,-263.5 "/>
<text text-anchor="middle" x="155.5" y="-253.1" font-family="Times,serif" font-size="8.00">[1, 1, 1]</text>
<polyline fill="none" stroke="#b2dfee" points="131,-246.5 180,-246.5 "/>
<text text-anchor="middle" x="155.5" y="-236.1" font-family="Times,serif" font-size="8.00">None</text>
<polyline fill="none" stroke="#b2dfee" points="131,-229.5 180,-229.5 "/>
<text text-anchor="middle" x="155.5" y="-219.1" font-family="Times,serif" font-size="8.00">True</text>
</g>
<!-- layer_2 -->
<g id="node2" class="node">
<title>layer_2</title>
<polygon fill="#b2dfee" stroke="#b2dfee" points="0,-73.5 0,-175.5 114,-175.5 114,-73.5 0,-73.5"/>
<text text-anchor="middle" x="32.5" y="-165.1" font-family="Times,serif" font-size="8.00">name</text>
<polyline fill="none" stroke="#b2dfee" points="0,-158.5 65,-158.5 "/>
<text text-anchor="middle" x="32.5" y="-148.1" font-family="Times,serif" font-size="8.00">Type</text>
<polyline fill="none" stroke="#b2dfee" points="0,-141.5 65,-141.5 "/>
<text text-anchor="middle" x="32.5" y="-131.1" font-family="Times,serif" font-size="8.00">kernel</text>
<polyline fill="none" stroke="#b2dfee" points="0,-124.5 65,-124.5 "/>
<text text-anchor="middle" x="32.5" y="-114.1" font-family="Times,serif" font-size="8.00">stride</text>
<polyline fill="none" stroke="#b2dfee" points="0,-107.5 65,-107.5 "/>
<text text-anchor="middle" x="32.5" y="-97.1" font-family="Times,serif" font-size="8.00">padding</text>
<polyline fill="none" stroke="#b2dfee" points="0,-90.5 65,-90.5 "/>
<text text-anchor="middle" x="32.5" y="-80.1" font-family="Times,serif" font-size="8.00">normal, relu</text>
<polyline fill="none" stroke="#b2dfee" points="65,-73.5 65,-175.5 "/>
<text text-anchor="middle" x="89.5" y="-165.1" font-family="Times,serif" font-size="8.00">layer_2</text>
<polyline fill="none" stroke="#b2dfee" points="65,-158.5 114,-158.5 "/>
<text text-anchor="middle" x="89.5" y="-148.1" font-family="Times,serif" font-size="8.00">Conv3D</text>
<polyline fill="none" stroke="#b2dfee" points="65,-141.5 114,-141.5 "/>
<text text-anchor="middle" x="89.5" y="-131.1" font-family="Times,serif" font-size="8.00">[3, 3, 3]</text>
<polyline fill="none" stroke="#b2dfee" points="65,-124.5 114,-124.5 "/>
<text text-anchor="middle" x="89.5" y="-114.1" font-family="Times,serif" font-size="8.00">[1, 1, 1]</text>
<polyline fill="none" stroke="#b2dfee" points="65,-107.5 114,-107.5 "/>
<text text-anchor="middle" x="89.5" y="-97.1" font-family="Times,serif" font-size="8.00">None</text>
<polyline fill="none" stroke="#b2dfee" points="65,-90.5 114,-90.5 "/>
<text text-anchor="middle" x="89.5" y="-80.1" font-family="Times,serif" font-size="8.00">True</text>
</g>
<!-- layer_1&#45;&gt;layer_2 -->
<g id="edge1" class="edge">
<title>layer_1&#45;&gt;layer_2</title>
<path fill="none" stroke="black" d="M98.8,-212.26C94.49,-203.33 89.97,-193.95 85.56,-184.79"/>
<polygon fill="black" stroke="black" points="88.69,-183.22 81.2,-175.73 82.39,-186.26 88.69,-183.22"/>
</g>
<!-- layer_3 -->
<g id="node3" class="node">
<title>layer_3</title>
<polygon fill="#b2dfee" stroke="#b2dfee" points="132,-73.5 132,-175.5 246,-175.5 246,-73.5 132,-73.5"/>
<text text-anchor="middle" x="164.5" y="-165.1" font-family="Times,serif" font-size="8.00">name</text>
<polyline fill="none" stroke="#b2dfee" points="132,-158.5 197,-158.5 "/>
<text text-anchor="middle" x="164.5" y="-148.1" font-family="Times,serif" font-size="8.00">Type</text>
<polyline fill="none" stroke="#b2dfee" points="132,-141.5 197,-141.5 "/>
<text text-anchor="middle" x="164.5" y="-131.1" font-family="Times,serif" font-size="8.00">kernel</text>
<polyline fill="none" stroke="#b2dfee" points="132,-124.5 197,-124.5 "/>
<text text-anchor="middle" x="164.5" y="-114.1" font-family="Times,serif" font-size="8.00">stride</text>
<polyline fill="none" stroke="#b2dfee" points="132,-107.5 197,-107.5 "/>
<text text-anchor="middle" x="164.5" y="-97.1" font-family="Times,serif" font-size="8.00">padding</text>
<polyline fill="none" stroke="#b2dfee" points="132,-90.5 197,-90.5 "/>
<text text-anchor="middle" x="164.5" y="-80.1" font-family="Times,serif" font-size="8.00">normal, relu</text>
<polyline fill="none" stroke="#b2dfee" points="197,-73.5 197,-175.5 "/>
<text text-anchor="middle" x="221.5" y="-165.1" font-family="Times,serif" font-size="8.00">layer_3</text>
<polyline fill="none" stroke="#b2dfee" points="197,-158.5 246,-158.5 "/>
<text text-anchor="middle" x="221.5" y="-148.1" font-family="Times,serif" font-size="8.00">Conv3D</text>
<polyline fill="none" stroke="#b2dfee" points="197,-141.5 246,-141.5 "/>
<text text-anchor="middle" x="221.5" y="-131.1" font-family="Times,serif" font-size="8.00">[3, 3, 3]</text>
<polyline fill="none" stroke="#b2dfee" points="197,-124.5 246,-124.5 "/>
<text text-anchor="middle" x="221.5" y="-114.1" font-family="Times,serif" font-size="8.00">[1, 1, 1]</text>
<polyline fill="none" stroke="#b2dfee" points="197,-107.5 246,-107.5 "/>
<text text-anchor="middle" x="221.5" y="-97.1" font-family="Times,serif" font-size="8.00">None</text>
<polyline fill="none" stroke="#b2dfee" points="197,-90.5 246,-90.5 "/>
<text text-anchor="middle" x="221.5" y="-80.1" font-family="Times,serif" font-size="8.00">True</text>
</g>
<!-- layer_1&#45;&gt;layer_3 -->
<g id="edge2" class="edge">
<title>layer_1&#45;&gt;layer_3</title>
<path fill="none" stroke="black" d="M147.2,-212.26C151.51,-203.33 156.03,-193.95 160.44,-184.79"/>
<polygon fill="black" stroke="black" points="163.61,-186.26 164.8,-175.73 157.31,-183.22 163.61,-186.26"/>
</g>
<!-- layer_4 -->
<g id="node4" class="node">
<title>layer_4</title>
<polygon fill="#b2dfee" stroke="#b2dfee" points="81.5,-0.5 81.5,-36.5 164.5,-36.5 164.5,-0.5 81.5,-0.5"/>
<text text-anchor="middle" x="100.5" y="-25.6" font-family="Times,serif" font-size="8.00">name</text>
<polyline fill="none" stroke="#b2dfee" points="81.5,-18.5 119.5,-18.5 "/>
<text text-anchor="middle" x="100.5" y="-7.6" font-family="Times,serif" font-size="8.00">Type</text>
<polyline fill="none" stroke="#b2dfee" points="119.5,-0.5 119.5,-36.5 "/>
<text text-anchor="middle" x="142" y="-25.6" font-family="Times,serif" font-size="8.00">layer_4</text>
<polyline fill="none" stroke="#b2dfee" points="119.5,-18.5 164.5,-18.5 "/>
<text text-anchor="middle" x="142" y="-7.6" font-family="Times,serif" font-size="8.00">Concat</text>
</g>
<!-- layer_2&#45;&gt;layer_4 -->
<g id="edge3" class="edge">
<title>layer_2&#45;&gt;layer_4</title>
<path fill="none" stroke="black" d="M88.84,-73.33C94.94,-63.72 101.09,-54.02 106.46,-45.56"/>
<polygon fill="black" stroke="black" points="109.54,-47.24 111.95,-36.92 103.63,-43.49 109.54,-47.24"/>
</g>
<!-- layer_3&#45;&gt;layer_4 -->
<g id="edge4" class="edge">
<title>layer_3&#45;&gt;layer_4</title>
<path fill="none" stroke="black" d="M157.16,-73.33C151.06,-63.72 144.91,-54.02 139.54,-45.56"/>
<polygon fill="black" stroke="black" points="142.37,-43.49 134.05,-36.92 136.46,-47.24 142.37,-43.49"/>
</g>
</g>
</svg>
